  0
SECTION
  2
BLOCKS
  0
ENDSEC
  0
SECTION
  2
ENTITIES
  0
LINE
  8
0
 10
-106.324
 11
-105.848
 20
-89.5
 21
-88.352
  0
LINE
  8
0
 10
-105.848
 11
-104.7
 20
-88.352
 21
-87.876
  0
LINE
  8
0
 10
-104.7
 11
-103.552
 20
-87.876
 21
-88.352
  0
LINE
  8
0
 10
-103.552
 11
-103.076
 20
-88.352
 21
-89.5
  0
LINE
  8
0
 10
-103.076
 11
-103.552
 20
-89.5
 21
-90.648
  0
LINE
  8
0
 10
-103.552
 11
-104.7
 20
-90.648
 21
-91.124
  0
LINE
  8
0
 10
-104.7
 11
-105.848
 20
-91.124
 21
-90.648
  0
LINE
  8
0
 10
-105.848
 11
-106.324
 20
-90.648
 21
-89.5
  0
LINE
  8
0
 10
-110
 11
-110
 20
-106.464
 21
106.464
  0
LINE
  8
0
 10
-110
 11
-106.464
 20
106.464
 21
110
  0
LINE
  8
0
 10
-106.464
 11
106.464
 20
110
 21
110
  0
LINE
  8
0
 10
106.464
 11
110
 20
110
 21
106.464
  0
LINE
  8
0
 10
110
 11
110
 20
106.464
 21
-106.464
  0
LINE
  8
0
 10
110
 11
106.464
 20
-106.464
 21
-110
  0
LINE
  8
0
 10
106.464
 11
-106.464
 20
-110
 21
-110
  0
LINE
  8
0
 10
-106.464
 11
-110
 20
-110
 21
-106.464
  0
LINE
  8
0
 10
-106.324
 11
-105.848
 20
-15
 21
-13.852
  0
LINE
  8
0
 10
-105.848
 11
-104.7
 20
-13.852
 21
-13.376
  0
LINE
  8
0
 10
-104.7
 11
-103.552
 20
-13.376
 21
-13.852
  0
LINE
  8
0
 10
-103.552
 11
-103.076
 20
-13.852
 21
-15
  0
LINE
  8
0
 10
-103.076
 11
-103.552
 20
-15
 21
-16.148
  0
LINE
  8
0
 10
-103.552
 11
-104.7
 20
-16.148
 21
-16.624
  0
LINE
  8
0
 10
-104.7
 11
-105.848
 20
-16.624
 21
-16.148
  0
LINE
  8
0
 10
-105.848
 11
-106.324
 20
-16.148
 21
-15
  0
LINE
  8
0
 10
-106.324
 11
-105.848
 20
15
 21
16.148
  0
LINE
  8
0
 10
-105.848
 11
-104.7
 20
16.148
 21
16.624
  0
LINE
  8
0
 10
-104.7
 11
-103.552
 20
16.624
 21
16.148
  0
LINE
  8
0
 10
-103.552
 11
-103.076
 20
16.148
 21
15
  0
LINE
  8
0
 10
-103.076
 11
-103.552
 20
15
 21
13.852
  0
LINE
  8
0
 10
-103.552
 11
-104.7
 20
13.852
 21
13.376
  0
LINE
  8
0
 10
-104.7
 11
-105.848
 20
13.376
 21
13.852
  0
LINE
  8
0
 10
-105.848
 11
-106.324
 20
13.852
 21
15
  0
LINE
  8
0
 10
-106.324
 11
-105.848
 20
89.5
 21
90.648
  0
LINE
  8
0
 10
-105.848
 11
-104.7
 20
90.648
 21
91.124
  0
LINE
  8
0
 10
-104.7
 11
-103.552
 20
91.124
 21
90.648
  0
LINE
  8
0
 10
-103.552
 11
-103.076
 20
90.648
 21
89.5
  0
LINE
  8
0
 10
-103.076
 11
-103.552
 20
89.5
 21
88.352
  0
LINE
  8
0
 10
-103.552
 11
-104.7
 20
88.352
 21
87.876
  0
LINE
  8
0
 10
-104.7
 11
-105.848
 20
87.876
 21
88.352
  0
LINE
  8
0
 10
-105.848
 11
-106.324
 20
88.352
 21
89.5
  0
LINE
  8
0
 10
-106.232
 11
-105.725
 20
-104.5
 21
-103.275
  0
LINE
  8
0
 10
-105.725
 11
-104.5
 20
-103.275
 21
-102.768
  0
LINE
  8
0
 10
-104.5
 11
-103.275
 20
-102.768
 21
-103.275
  0
LINE
  8
0
 10
-103.275
 11
-102.768
 20
-103.275
 21
-104.5
  0
LINE
  8
0
 10
-102.768
 11
-103.275
 20
-104.5
 21
-105.725
  0
LINE
  8
0
 10
-103.275
 11
-104.5
 20
-105.725
 21
-106.232
  0
LINE
  8
0
 10
-104.5
 11
-105.725
 20
-106.232
 21
-105.725
  0
LINE
  8
0
 10
-105.725
 11
-106.232
 20
-105.725
 21
-104.5
  0
LINE
  8
0
 10
-106.232
 11
-105.725
 20
0
 21
1.225
  0
LINE
  8
0
 10
-105.725
 11
-104.5
 20
1.225
 21
1.732
  0
LINE
  8
0
 10
-104.5
 11
-103.275
 20
1.732
 21
1.225
  0
LINE
  8
0
 10
-103.275
 11
-102.768
 20
1.225
 21
0
  0
LINE
  8
0
 10
-102.768
 11
-103.275
 20
0
 21
-1.225
  0
LINE
  8
0
 10
-103.275
 11
-104.5
 20
-1.225
 21
-1.732
  0
LINE
  8
0
 10
-104.5
 11
-105.725
 20
-1.732
 21
-1.225
  0
LINE
  8
0
 10
-105.725
 11
-106.232
 20
-1.225
 21
0
  0
LINE
  8
0
 10
-106.232
 11
-105.725
 20
104.5
 21
105.725
  0
LINE
  8
0
 10
-105.725
 11
-104.5
 20
105.725
 21
106.232
  0
LINE
  8
0
 10
-104.5
 11
-103.275
 20
106.232
 21
105.725
  0
LINE
  8
0
 10
-103.275
 11
-102.768
 20
105.725
 21
104.5
  0
LINE
  8
0
 10
-102.768
 11
-103.275
 20
104.5
 21
103.275
  0
LINE
  8
0
 10
-103.275
 11
-104.5
 20
103.275
 21
102.768
  0
LINE
  8
0
 10
-104.5
 11
-105.725
 20
102.768
 21
103.275
  0
LINE
  8
0
 10
-105.725
 11
-106.232
 20
103.275
 21
104.5
  0
LINE
  8
0
 10
-99.324
 11
-98.848
 20
-89.5
 21
-88.352
  0
LINE
  8
0
 10
-98.848
 11
-97.7
 20
-88.352
 21
-87.876
  0
LINE
  8
0
 10
-97.7
 11
-96.552
 20
-87.876
 21
-88.352
  0
LINE
  8
0
 10
-96.552
 11
-96.076
 20
-88.352
 21
-89.5
  0
LINE
  8
0
 10
-96.076
 11
-96.552
 20
-89.5
 21
-90.648
  0
LINE
  8
0
 10
-96.552
 11
-97.7
 20
-90.648
 21
-91.124
  0
LINE
  8
0
 10
-97.7
 11
-98.848
 20
-91.124
 21
-90.648
  0
LINE
  8
0
 10
-98.848
 11
-99.324
 20
-90.648
 21
-89.5
  0
LINE
  8
0
 10
-99.324
 11
-98.848
 20
-15
 21
-13.852
  0
LINE
  8
0
 10
-98.848
 11
-97.7
 20
-13.852
 21
-13.376
  0
LINE
  8
0
 10
-97.7
 11
-96.552
 20
-13.376
 21
-13.852
  0
LINE
  8
0
 10
-96.552
 11
-96.076
 20
-13.852
 21
-15
  0
LINE
  8
0
 10
-96.076
 11
-96.552
 20
-15
 21
-16.148
  0
LINE
  8
0
 10
-96.552
 11
-97.7
 20
-16.148
 21
-16.624
  0
LINE
  8
0
 10
-97.7
 11
-98.848
 20
-16.624
 21
-16.148
  0
LINE
  8
0
 10
-98.848
 11
-99.324
 20
-16.148
 21
-15
  0
LINE
  8
0
 10
-99.324
 11
-98.848
 20
15
 21
16.148
  0
LINE
  8
0
 10
-98.848
 11
-97.7
 20
16.148
 21
16.624
  0
LINE
  8
0
 10
-97.7
 11
-96.552
 20
16.624
 21
16.148
  0
LINE
  8
0
 10
-96.552
 11
-96.076
 20
16.148
 21
15
  0
LINE
  8
0
 10
-96.076
 11
-96.552
 20
15
 21
13.852
  0
LINE
  8
0
 10
-96.552
 11
-97.7
 20
13.852
 21
13.376
  0
LINE
  8
0
 10
-97.7
 11
-98.848
 20
13.376
 21
13.852
  0
LINE
  8
0
 10
-98.848
 11
-99.324
 20
13.852
 21
15
  0
LINE
  8
0
 10
-99.324
 11
-98.848
 20
89.5
 21
90.648
  0
LINE
  8
0
 10
-98.848
 11
-97.7
 20
90.648
 21
91.124
  0
LINE
  8
0
 10
-97.7
 11
-96.552
 20
91.124
 21
90.648
  0
LINE
  8
0
 10
-96.552
 11
-96.076
 20
90.648
 21
89.5
  0
LINE
  8
0
 10
-96.076
 11
-96.552
 20
89.5
 21
88.352
  0
LINE
  8
0
 10
-96.552
 11
-97.7
 20
88.352
 21
87.876
  0
LINE
  8
0
 10
-97.7
 11
-98.848
 20
87.876
 21
88.352
  0
LINE
  8
0
 10
-98.848
 11
-99.324
 20
88.352
 21
89.5
  0
LINE
  8
0
 10
-96.624
 11
-96.148
 20
-35
 21
-33.852
  0
LINE
  8
0
 10
-96.148
 11
-95
 20
-33.852
 21
-33.376
  0
LINE
  8
0
 10
-95
 11
-93.852
 20
-33.376
 21
-33.852
  0
LINE
  8
0
 10
-93.852
 11
-93.376
 20
-33.852
 21
-35
  0
LINE
  8
0
 10
-93.376
 11
-93.852
 20
-35
 21
-36.148
  0
LINE
  8
0
 10
-93.852
 11
-95
 20
-36.148
 21
-36.624
  0
LINE
  8
0
 10
-95
 11
-96.148
 20
-36.624
 21
-36.148
  0
LINE
  8
0
 10
-96.148
 11
-96.624
 20
-36.148
 21
-35
  0
LINE
  8
0
 10
-96.624
 11
-96.148
 20
35
 21
36.148
  0
LINE
  8
0
 10
-96.148
 11
-95
 20
36.148
 21
36.624
  0
LINE
  8
0
 10
-95
 11
-93.852
 20
36.624
 21
36.148
  0
LINE
  8
0
 10
-93.852
 11
-93.376
 20
36.148
 21
35
  0
LINE
  8
0
 10
-93.376
 11
-93.852
 20
35
 21
33.852
  0
LINE
  8
0
 10
-93.852
 11
-95
 20
33.852
 21
33.376
  0
LINE
  8
0
 10
-95
 11
-96.148
 20
33.376
 21
33.852
  0
LINE
  8
0
 10
-96.148
 11
-96.624
 20
33.852
 21
35
  0
LINE
  8
0
 10
-91.124
 11
-90.648
 20
-104.7
 21
-103.552
  0
LINE
  8
0
 10
-90.648
 11
-89.5
 20
-103.552
 21
-103.076
  0
LINE
  8
0
 10
-89.5
 11
-88.352
 20
-103.076
 21
-103.552
  0
LINE
  8
0
 10
-88.352
 11
-87.876
 20
-103.552
 21
-104.7
  0
LINE
  8
0
 10
-87.876
 11
-88.352
 20
-104.7
 21
-105.848
  0
LINE
  8
0
 10
-88.352
 11
-89.5
 20
-105.848
 21
-106.324
  0
LINE
  8
0
 10
-89.5
 11
-90.648
 20
-106.324
 21
-105.848
  0
LINE
  8
0
 10
-90.648
 11
-91.124
 20
-105.848
 21
-104.7
  0
LINE
  8
0
 10
-91.124
 11
-90.648
 20
-97.7
 21
-96.552
  0
LINE
  8
0
 10
-90.648
 11
-89.5
 20
-96.552
 21
-96.076
  0
LINE
  8
0
 10
-89.5
 11
-88.352
 20
-96.076
 21
-96.552
  0
LINE
  8
0
 10
-88.352
 11
-87.876
 20
-96.552
 21
-97.7
  0
LINE
  8
0
 10
-87.876
 11
-88.352
 20
-97.7
 21
-98.848
  0
LINE
  8
0
 10
-88.352
 11
-89.5
 20
-98.848
 21
-99.324
  0
LINE
  8
0
 10
-89.5
 11
-90.648
 20
-99.324
 21
-98.848
  0
LINE
  8
0
 10
-90.648
 11
-91.124
 20
-98.848
 21
-97.7
  0
LINE
  8
0
 10
-91.124
 11
-90.648
 20
97.7
 21
98.848
  0
LINE
  8
0
 10
-90.648
 11
-89.5
 20
98.848
 21
99.324
  0
LINE
  8
0
 10
-89.5
 11
-88.352
 20
99.324
 21
98.848
  0
LINE
  8
0
 10
-88.352
 11
-87.876
 20
98.848
 21
97.7
  0
LINE
  8
0
 10
-87.876
 11
-88.352
 20
97.7
 21
96.552
  0
LINE
  8
0
 10
-88.352
 11
-89.5
 20
96.552
 21
96.076
  0
LINE
  8
0
 10
-89.5
 11
-90.648
 20
96.076
 21
96.552
  0
LINE
  8
0
 10
-90.648
 11
-91.124
 20
96.552
 21
97.7
  0
LINE
  8
0
 10
-91.124
 11
-90.648
 20
104.7
 21
105.848
  0
LINE
  8
0
 10
-90.648
 11
-89.5
 20
105.848
 21
106.324
  0
LINE
  8
0
 10
-89.5
 11
-88.352
 20
106.324
 21
105.848
  0
LINE
  8
0
 10
-88.352
 11
-87.876
 20
105.848
 21
104.7
  0
LINE
  8
0
 10
-87.876
 11
-88.352
 20
104.7
 21
103.552
  0
LINE
  8
0
 10
-88.352
 11
-89.5
 20
103.552
 21
103.076
  0
LINE
  8
0
 10
-89.5
 11
-90.648
 20
103.076
 21
103.552
  0
LINE
  8
0
 10
-90.648
 11
-91.124
 20
103.552
 21
104.7
  0
LINE
  8
0
 10
-90
 11
-90
 20
-47
 21
-23
  0
LINE
  8
0
 10
-90
 11
-80
 20
-23
 21
-23
  0
LINE
  8
0
 10
-80
 11
-80
 20
-23
 21
-47
  0
LINE
  8
0
 10
-80
 11
-90
 20
-47
 21
-47
  0
LINE
  8
0
 10
-90
 11
-90
 20
23
 21
47
  0
LINE
  8
0
 10
-90
 11
-80
 20
47
 21
47
  0
LINE
  8
0
 10
-80
 11
-80
 20
47
 21
23
  0
LINE
  8
0
 10
-80
 11
-90
 20
23
 21
23
  0
LINE
  8
0
 10
-85
 11
-85
 20
-80.021
 21
-72.979
  0
LINE
  8
0
 10
-85
 11
-80.021
 20
-72.979
 21
-68
  0
LINE
  8
0
 10
-80.021
 11
-72.979
 20
-68
 21
-68
  0
LINE
  8
0
 10
-72.979
 11
-68
 20
-68
 21
-72.979
  0
LINE
  8
0
 10
-68
 11
-68
 20
-72.979
 21
-80.021
  0
LINE
  8
0
 10
-68
 11
-72.979
 20
-80.021
 21
-85
  0
LINE
  8
0
 10
-72.979
 11
-80.021
 20
-85
 21
-85
  0
LINE
  8
0
 10
-80.021
 11
-85
 20
-85
 21
-80.021
  0
LINE
  8
0
 10
-85
 11
-85
 20
72.979
 21
80.021
  0
LINE
  8
0
 10
-85
 11
-80.021
 20
80.021
 21
85
  0
LINE
  8
0
 10
-80.021
 11
-72.979
 20
85
 21
85
  0
LINE
  8
0
 10
-72.979
 11
-68
 20
85
 21
80.021
  0
LINE
  8
0
 10
-68
 11
-68
 20
80.021
 21
72.979
  0
LINE
  8
0
 10
-68
 11
-72.979
 20
72.979
 21
68
  0
LINE
  8
0
 10
-72.979
 11
-80.021
 20
68
 21
68
  0
LINE
  8
0
 10
-80.021
 11
-85
 20
68
 21
72.979
  0
LINE
  8
0
 10
-76.624
 11
-76.148
 20
-35
 21
-33.852
  0
LINE
  8
0
 10
-76.148
 11
-75
 20
-33.852
 21
-33.376
  0
LINE
  8
0
 10
-75
 11
-73.852
 20
-33.376
 21
-33.852
  0
LINE
  8
0
 10
-73.852
 11
-73.376
 20
-33.852
 21
-35
  0
LINE
  8
0
 10
-73.376
 11
-73.852
 20
-35
 21
-36.148
  0
LINE
  8
0
 10
-73.852
 11
-75
 20
-36.148
 21
-36.624
  0
LINE
  8
0
 10
-75
 11
-76.148
 20
-36.624
 21
-36.148
  0
LINE
  8
0
 10
-76.148
 11
-76.624
 20
-36.148
 21
-35
  0
LINE
  8
0
 10
-76.624
 11
-76.148
 20
35
 21
36.148
  0
LINE
  8
0
 10
-76.148
 11
-75
 20
36.148
 21
36.624
  0
LINE
  8
0
 10
-75
 11
-73.852
 20
36.624
 21
36.148
  0
LINE
  8
0
 10
-73.852
 11
-73.376
 20
36.148
 21
35
  0
LINE
  8
0
 10
-73.376
 11
-73.852
 20
35
 21
33.852
  0
LINE
  8
0
 10
-73.852
 11
-75
 20
33.852
 21
33.376
  0
LINE
  8
0
 10
-75
 11
-76.148
 20
33.376
 21
33.852
  0
LINE
  8
0
 10
-76.148
 11
-76.624
 20
33.852
 21
35
  0
LINE
  8
0
 10
-68.85
 11
-68.85
 20
-8.802
 21
8.802
  0
LINE
  8
0
 10
-68.85
 11
-56.402
 20
8.802
 21
21.25
  0
LINE
  8
0
 10
-56.402
 11
-38.798
 20
21.25
 21
21.25
  0
LINE
  8
0
 10
-38.798
 11
-26.35
 20
21.25
 21
8.802
  0
LINE
  8
0
 10
-26.35
 11
-26.35
 20
8.802
 21
-8.802
  0
LINE
  8
0
 10
-26.35
 11
-38.798
 20
-8.802
 21
-21.25
  0
LINE
  8
0
 10
-38.798
 11
-56.402
 20
-21.25
 21
-21.25
  0
LINE
  8
0
 10
-56.402
 11
-68.85
 20
-21.25
 21
-8.802
  0
LINE
  8
0
 10
-60.35
 11
-60.35
 20
-52.881
 21
-42.319
  0
LINE
  8
0
 10
-60.35
 11
-52.881
 20
-42.319
 21
-34.85
  0
LINE
  8
0
 10
-52.881
 11
-42.319
 20
-34.85
 21
-34.85
  0
LINE
  8
0
 10
-42.319
 11
-34.85
 20
-34.85
 21
-42.319
  0
LINE
  8
0
 10
-34.85
 11
-34.85
 20
-42.319
 21
-52.881
  0
LINE
  8
0
 10
-34.85
 11
-42.319
 20
-52.881
 21
-60.35
  0
LINE
  8
0
 10
-42.319
 11
-52.881
 20
-60.35
 21
-60.35
  0
LINE
  8
0
 10
-52.881
 11
-60.35
 20
-60.35
 21
-52.881
  0
LINE
  8
0
 10
-60.35
 11
-60.35
 20
42.319
 21
52.881
  0
LINE
  8
0
 10
-60.35
 11
-52.881
 20
52.881
 21
60.35
  0
LINE
  8
0
 10
-52.881
 11
-42.319
 20
60.35
 21
60.35
  0
LINE
  8
0
 10
-42.319
 11
-34.85
 20
60.35
 21
52.881
  0
LINE
  8
0
 10
-34.85
 11
-34.85
 20
52.881
 21
42.319
  0
LINE
  8
0
 10
-34.85
 11
-42.319
 20
42.319
 21
34.85
  0
LINE
  8
0
 10
-42.319
 11
-52.881
 20
34.85
 21
34.85
  0
LINE
  8
0
 10
-52.881
 11
-60.35
 20
34.85
 21
42.319
  0
LINE
  8
0
 10
-47
 11
-47
 20
80
 21
90
  0
LINE
  8
0
 10
-47
 11
-23
 20
90
 21
90
  0
LINE
  8
0
 10
-23
 11
-23
 20
90
 21
80
  0
LINE
  8
0
 10
-23
 11
-47
 20
80
 21
80
  0
LINE
  8
0
 10
-36.624
 11
-36.148
 20
75
 21
76.148
  0
LINE
  8
0
 10
-36.148
 11
-35
 20
76.148
 21
76.624
  0
LINE
  8
0
 10
-35
 11
-33.852
 20
76.624
 21
76.148
  0
LINE
  8
0
 10
-33.852
 11
-33.376
 20
76.148
 21
75
  0
LINE
  8
0
 10
-33.376
 11
-33.852
 20
75
 21
73.852
  0
LINE
  8
0
 10
-33.852
 11
-35
 20
73.852
 21
73.376
  0
LINE
  8
0
 10
-35
 11
-36.148
 20
73.376
 21
73.852
  0
LINE
  8
0
 10
-36.148
 11
-36.624
 20
73.852
 21
75
  0
LINE
  8
0
 10
-36.624
 11
-36.148
 20
95
 21
96.148
  0
LINE
  8
0
 10
-36.148
 11
-35
 20
96.148
 21
96.624
  0
LINE
  8
0
 10
-35
 11
-33.852
 20
96.624
 21
96.148
  0
LINE
  8
0
 10
-33.852
 11
-33.376
 20
96.148
 21
95
  0
LINE
  8
0
 10
-33.376
 11
-33.852
 20
95
 21
93.852
  0
LINE
  8
0
 10
-33.852
 11
-35
 20
93.852
 21
93.376
  0
LINE
  8
0
 10
-35
 11
-36.148
 20
93.376
 21
93.852
  0
LINE
  8
0
 10
-36.148
 11
-36.624
 20
93.852
 21
95
  0
LINE
  8
0
 10
-22.124
 11
-21.648
 20
0
 21
1.148
  0
LINE
  8
0
 10
-21.648
 11
-20.5
 20
1.148
 21
1.624
  0
LINE
  8
0
 10
-20.5
 11
-19.352
 20
1.624
 21
1.148
  0
LINE
  8
0
 10
-19.352
 11
-18.876
 20
1.148
 21
0
  0
LINE
  8
0
 10
-18.876
 11
-19.352
 20
0
 21
-1.148
  0
LINE
  8
0
 10
-19.352
 11
-20.5
 20
-1.148
 21
-1.624
  0
LINE
  8
0
 10
-20.5
 11
-21.648
 20
-1.624
 21
-1.148
  0
LINE
  8
0
 10
-21.648
 11
-22.124
 20
-1.148
 21
0
  0
LINE
  8
0
 10
-21.25
 11
-21.25
 20
-56.402
 21
-38.798
  0
LINE
  8
0
 10
-21.25
 11
-8.802
 20
-38.798
 21
-26.35
  0
LINE
  8
0
 10
-8.802
 11
8.802
 20
-26.35
 21
-26.35
  0
LINE
  8
0
 10
8.802
 11
21.25
 20
-26.35
 21
-38.798
  0
LINE
  8
0
 10
21.25
 11
21.25
 20
-38.798
 21
-56.402
  0
LINE
  8
0
 10
21.25
 11
8.802
 20
-56.402
 21
-68.85
  0
LINE
  8
0
 10
8.802
 11
-8.802
 20
-68.85
 21
-68.85
  0
LINE
  8
0
 10
-8.802
 11
-21.25
 20
-68.85
 21
-56.402
  0
LINE
  8
0
 10
-21.25
 11
-21.25
 20
38.798
 21
56.402
  0
LINE
  8
0
 10
-21.25
 11
-8.802
 20
56.402
 21
68.85
  0
LINE
  8
0
 10
-8.802
 11
8.802
 20
68.85
 21
68.85
  0
LINE
  8
0
 10
8.802
 11
21.25
 20
68.85
 21
56.402
  0
LINE
  8
0
 10
21.25
 11
21.25
 20
56.402
 21
38.798
  0
LINE
  8
0
 10
21.25
 11
8.802
 20
38.798
 21
26.35
  0
LINE
  8
0
 10
8.802
 11
-8.802
 20
26.35
 21
26.35
  0
LINE
  8
0
 10
-8.802
 11
-21.25
 20
26.35
 21
38.798
  0
LINE
  8
0
 10
-16.624
 11
-16.148
 20
-104.7
 21
-103.552
  0
LINE
  8
0
 10
-16.148
 11
-15
 20
-103.552
 21
-103.076
  0
LINE
  8
0
 10
-15
 11
-13.852
 20
-103.076
 21
-103.552
  0
LINE
  8
0
 10
-13.852
 11
-13.376
 20
-103.552
 21
-104.7
  0
LINE
  8
0
 10
-13.376
 11
-13.852
 20
-104.7
 21
-105.848
  0
LINE
  8
0
 10
-13.852
 11
-15
 20
-105.848
 21
-106.324
  0
LINE
  8
0
 10
-15
 11
-16.148
 20
-106.324
 21
-105.848
  0
LINE
  8
0
 10
-16.148
 11
-16.624
 20
-105.848
 21
-104.7
  0
LINE
  8
0
 10
-16.624
 11
-16.148
 20
-97.7
 21
-96.552
  0
LINE
  8
0
 10
-16.148
 11
-15
 20
-96.552
 21
-96.076
  0
LINE
  8
0
 10
-15
 11
-13.852
 20
-96.076
 21
-96.552
  0
LINE
  8
0
 10
-13.852
 11
-13.376
 20
-96.552
 21
-97.7
  0
LINE
  8
0
 10
-13.376
 11
-13.852
 20
-97.7
 21
-98.848
  0
LINE
  8
0
 10
-13.852
 11
-15
 20
-98.848
 21
-99.324
  0
LINE
  8
0
 10
-15
 11
-16.148
 20
-99.324
 21
-98.848
  0
LINE
  8
0
 10
-16.148
 11
-16.624
 20
-98.848
 21
-97.7
  0
LINE
  8
0
 10
-16.624
 11
-16.148
 20
97.7
 21
98.848
  0
LINE
  8
0
 10
-16.148
 11
-15
 20
98.848
 21
99.324
  0
LINE
  8
0
 10
-15
 11
-13.852
 20
99.324
 21
98.848
  0
LINE
  8
0
 10
-13.852
 11
-13.376
 20
98.848
 21
97.7
  0
LINE
  8
0
 10
-13.376
 11
-13.852
 20
97.7
 21
96.552
  0
LINE
  8
0
 10
-13.852
 11
-15
 20
96.552
 21
96.076
  0
LINE
  8
0
 10
-15
 11
-16.148
 20
96.076
 21
96.552
  0
LINE
  8
0
 10
-16.148
 11
-16.624
 20
96.552
 21
97.7
  0
LINE
  8
0
 10
-16.624
 11
-16.148
 20
104.7
 21
105.848
  0
LINE
  8
0
 10
-16.148
 11
-15
 20
105.848
 21
106.324
  0
LINE
  8
0
 10
-15
 11
-13.852
 20
106.324
 21
105.848
  0
LINE
  8
0
 10
-13.852
 11
-13.376
 20
105.848
 21
104.7
  0
LINE
  8
0
 10
-13.376
 11
-13.852
 20
104.7
 21
103.552
  0
LINE
  8
0
 10
-13.852
 11
-15
 20
103.552
 21
103.076
  0
LINE
  8
0
 10
-15
 11
-16.148
 20
103.076
 21
103.552
  0
LINE
  8
0
 10
-16.148
 11
-16.624
 20
103.552
 21
104.7
  0
LINE
  8
0
 10
-12
 11
-12
 20
-90
 21
-80
  0
LINE
  8
0
 10
-12
 11
12
 20
-80
 21
-80
  0
LINE
  8
0
 10
12
 11
12
 20
-80
 21
-90
  0
LINE
  8
0
 10
12
 11
-12
 20
-90
 21
-90
  0
LINE
  8
0
 10
-1.732
 11
-1.225
 20
-104.5
 21
-103.275
  0
LINE
  8
0
 10
-1.225
 11
0
 20
-103.275
 21
-102.768
  0
LINE
  8
0
 10
0
 11
1.225
 20
-102.768
 21
-103.275
  0
LINE
  8
0
 10
1.225
 11
1.732
 20
-103.275
 21
-104.5
  0
LINE
  8
0
 10
1.732
 11
1.225
 20
-104.5
 21
-105.725
  0
LINE
  8
0
 10
1.225
 11
0
 20
-105.725
 21
-106.232
  0
LINE
  8
0
 10
0
 11
-1.225
 20
-106.232
 21
-105.725
  0
LINE
  8
0
 10
-1.225
 11
-1.732
 20
-105.725
 21
-104.5
  0
LINE
  8
0
 10
-1.732
 11
-1.225
 20
0
 21
1.225
  0
LINE
  8
0
 10
-1.225
 11
0
 20
1.225
 21
1.732
  0
LINE
  8
0
 10
0
 11
1.225
 20
1.732
 21
1.225
  0
LINE
  8
0
 10
1.225
 11
1.732
 20
1.225
 21
0
  0
LINE
  8
0
 10
1.732
 11
1.225
 20
0
 21
-1.225
  0
LINE
  8
0
 10
1.225
 11
0
 20
-1.225
 21
-1.732
  0
LINE
  8
0
 10
0
 11
-1.225
 20
-1.732
 21
-1.225
  0
LINE
  8
0
 10
-1.225
 11
-1.732
 20
-1.225
 21
0
  0
LINE
  8
0
 10
-1.732
 11
-1.225
 20
104.5
 21
105.725
  0
LINE
  8
0
 10
-1.225
 11
0
 20
105.725
 21
106.232
  0
LINE
  8
0
 10
0
 11
1.225
 20
106.232
 21
105.725
  0
LINE
  8
0
 10
1.225
 11
1.732
 20
105.725
 21
104.5
  0
LINE
  8
0
 10
1.732
 11
1.225
 20
104.5
 21
103.275
  0
LINE
  8
0
 10
1.225
 11
0
 20
103.275
 21
102.768
  0
LINE
  8
0
 10
0
 11
-1.225
 20
102.768
 21
103.275
  0
LINE
  8
0
 10
-1.225
 11
-1.732
 20
103.275
 21
104.5
  0
LINE
  8
0
 10
-1.624
 11
-1.148
 20
-95
 21
-93.852
  0
LINE
  8
0
 10
-1.148
 11
0
 20
-93.852
 21
-93.376
  0
LINE
  8
0
 10
0
 11
1.148
 20
-93.376
 21
-93.852
  0
LINE
  8
0
 10
1.148
 11
1.624
 20
-93.852
 21
-95
  0
LINE
  8
0
 10
1.624
 11
1.148
 20
-95
 21
-96.148
  0
LINE
  8
0
 10
1.148
 11
0
 20
-96.148
 21
-96.624
  0
LINE
  8
0
 10
0
 11
-1.148
 20
-96.624
 21
-96.148
  0
LINE
  8
0
 10
-1.148
 11
-1.624
 20
-96.148
 21
-95
  0
LINE
  8
0
 10
-1.624
 11
-1.148
 20
-75
 21
-73.852
  0
LINE
  8
0
 10
-1.148
 11
0
 20
-73.852
 21
-73.376
  0
LINE
  8
0
 10
0
 11
1.148
 20
-73.376
 21
-73.852
  0
LINE
  8
0
 10
1.148
 11
1.624
 20
-73.852
 21
-75
  0
LINE
  8
0
 10
1.624
 11
1.148
 20
-75
 21
-76.148
  0
LINE
  8
0
 10
1.148
 11
0
 20
-76.148
 21
-76.624
  0
LINE
  8
0
 10
0
 11
-1.148
 20
-76.624
 21
-76.148
  0
LINE
  8
0
 10
-1.148
 11
-1.624
 20
-76.148
 21
-75
  0
LINE
  8
0
 10
-1.624
 11
-1.148
 20
-20.5
 21
-19.352
  0
LINE
  8
0
 10
-1.148
 11
0
 20
-19.352
 21
-18.876
  0
LINE
  8
0
 10
0
 11
1.148
 20
-18.876
 21
-19.352
  0
LINE
  8
0
 10
1.148
 11
1.624
 20
-19.352
 21
-20.5
  0
LINE
  8
0
 10
1.624
 11
1.148
 20
-20.5
 21
-21.648
  0
LINE
  8
0
 10
1.148
 11
0
 20
-21.648
 21
-22.124
  0
LINE
  8
0
 10
0
 11
-1.148
 20
-22.124
 21
-21.648
  0
LINE
  8
0
 10
-1.148
 11
-1.624
 20
-21.648
 21
-20.5
  0
LINE
  8
0
 10
-1.624
 11
-1.148
 20
20.5
 21
21.648
  0
LINE
  8
0
 10
-1.148
 11
0
 20
21.648
 21
22.124
  0
LINE
  8
0
 10
0
 11
1.148
 20
22.124
 21
21.648
  0
LINE
  8
0
 10
1.148
 11
1.624
 20
21.648
 21
20.5
  0
LINE
  8
0
 10
1.624
 11
1.148
 20
20.5
 21
19.352
  0
LINE
  8
0
 10
1.148
 11
0
 20
19.352
 21
18.876
  0
LINE
  8
0
 10
0
 11
-1.148
 20
18.876
 21
19.352
  0
LINE
  8
0
 10
-1.148
 11
-1.624
 20
19.352
 21
20.5
  0
LINE
  8
0
 10
13.376
 11
13.852
 20
-104.7
 21
-103.552
  0
LINE
  8
0
 10
13.852
 11
15
 20
-103.552
 21
-103.076
  0
LINE
  8
0
 10
15
 11
16.148
 20
-103.076
 21
-103.552
  0
LINE
  8
0
 10
16.148
 11
16.624
 20
-103.552
 21
-104.7
  0
LINE
  8
0
 10
16.624
 11
16.148
 20
-104.7
 21
-105.848
  0
LINE
  8
0
 10
16.148
 11
15
 20
-105.848
 21
-106.324
  0
LINE
  8
0
 10
15
 11
13.852
 20
-106.324
 21
-105.848
  0
LINE
  8
0
 10
13.852
 11
13.376
 20
-105.848
 21
-104.7
  0
LINE
  8
0
 10
13.376
 11
13.852
 20
-97.7
 21
-96.552
  0
LINE
  8
0
 10
13.852
 11
15
 20
-96.552
 21
-96.076
  0
LINE
  8
0
 10
15
 11
16.148
 20
-96.076
 21
-96.552
  0
LINE
  8
0
 10
16.148
 11
16.624
 20
-96.552
 21
-97.7
  0
LINE
  8
0
 10
16.624
 11
16.148
 20
-97.7
 21
-98.848
  0
LINE
  8
0
 10
16.148
 11
15
 20
-98.848
 21
-99.324
  0
LINE
  8
0
 10
15
 11
13.852
 20
-99.324
 21
-98.848
  0
LINE
  8
0
 10
13.852
 11
13.376
 20
-98.848
 21
-97.7
  0
LINE
  8
0
 10
13.376
 11
13.852
 20
97.7
 21
98.848
  0
LINE
  8
0
 10
13.852
 11
15
 20
98.848
 21
99.324
  0
LINE
  8
0
 10
15
 11
16.148
 20
99.324
 21
98.848
  0
LINE
  8
0
 10
16.148
 11
16.624
 20
98.848
 21
97.7
  0
LINE
  8
0
 10
16.624
 11
16.148
 20
97.7
 21
96.552
  0
LINE
  8
0
 10
16.148
 11
15
 20
96.552
 21
96.076
  0
LINE
  8
0
 10
15
 11
13.852
 20
96.076
 21
96.552
  0
LINE
  8
0
 10
13.852
 11
13.376
 20
96.552
 21
97.7
  0
LINE
  8
0
 10
13.376
 11
13.852
 20
104.7
 21
105.848
  0
LINE
  8
0
 10
13.852
 11
15
 20
105.848
 21
106.324
  0
LINE
  8
0
 10
15
 11
16.148
 20
106.324
 21
105.848
  0
LINE
  8
0
 10
16.148
 11
16.624
 20
105.848
 21
104.7
  0
LINE
  8
0
 10
16.624
 11
16.148
 20
104.7
 21
103.552
  0
LINE
  8
0
 10
16.148
 11
15
 20
103.552
 21
103.076
  0
LINE
  8
0
 10
15
 11
13.852
 20
103.076
 21
103.552
  0
LINE
  8
0
 10
13.852
 11
13.376
 20
103.552
 21
104.7
  0
LINE
  8
0
 10
18.876
 11
19.352
 20
0
 21
1.148
  0
LINE
  8
0
 10
19.352
 11
20.5
 20
1.148
 21
1.624
  0
LINE
  8
0
 10
20.5
 11
21.648
 20
1.624
 21
1.148
  0
LINE
  8
0
 10
21.648
 11
22.124
 20
1.148
 21
0
  0
LINE
  8
0
 10
22.124
 11
21.648
 20
0
 21
-1.148
  0
LINE
  8
0
 10
21.648
 11
20.5
 20
-1.148
 21
-1.624
  0
LINE
  8
0
 10
20.5
 11
19.352
 20
-1.624
 21
-1.148
  0
LINE
  8
0
 10
19.352
 11
18.876
 20
-1.148
 21
0
  0
LINE
  8
0
 10
23
 11
23
 20
80
 21
90
  0
LINE
  8
0
 10
23
 11
47
 20
90
 21
90
  0
LINE
  8
0
 10
47
 11
47
 20
90
 21
80
  0
LINE
  8
0
 10
47
 11
23
 20
80
 21
80
  0
LINE
  8
0
 10
26.35
 11
26.35
 20
-8.802
 21
8.802
  0
LINE
  8
0
 10
26.35
 11
38.798
 20
8.802
 21
21.25
  0
LINE
  8
0
 10
38.798
 11
56.402
 20
21.25
 21
21.25
  0
LINE
  8
0
 10
56.402
 11
68.85
 20
21.25
 21
8.802
  0
LINE
  8
0
 10
68.85
 11
68.85
 20
8.802
 21
-8.802
  0
LINE
  8
0
 10
68.85
 11
56.402
 20
-8.802
 21
-21.25
  0
LINE
  8
0
 10
56.402
 11
38.798
 20
-21.25
 21
-21.25
  0
LINE
  8
0
 10
38.798
 11
26.35
 20
-21.25
 21
-8.802
  0
LINE
  8
0
 10
33.376
 11
33.852
 20
75
 21
76.148
  0
LINE
  8
0
 10
33.852
 11
35
 20
76.148
 21
76.624
  0
LINE
  8
0
 10
35
 11
36.148
 20
76.624
 21
76.148
  0
LINE
  8
0
 10
36.148
 11
36.624
 20
76.148
 21
75
  0
LINE
  8
0
 10
36.624
 11
36.148
 20
75
 21
73.852
  0
LINE
  8
0
 10
36.148
 11
35
 20
73.852
 21
73.376
  0
LINE
  8
0
 10
35
 11
33.852
 20
73.376
 21
73.852
  0
LINE
  8
0
 10
33.852
 11
33.376
 20
73.852
 21
75
  0
LINE
  8
0
 10
33.376
 11
33.852
 20
95
 21
96.148
  0
LINE
  8
0
 10
33.852
 11
35
 20
96.148
 21
96.624
  0
LINE
  8
0
 10
35
 11
36.148
 20
96.624
 21
96.148
  0
LINE
  8
0
 10
36.148
 11
36.624
 20
96.148
 21
95
  0
LINE
  8
0
 10
36.624
 11
36.148
 20
95
 21
93.852
  0
LINE
  8
0
 10
36.148
 11
35
 20
93.852
 21
93.376
  0
LINE
  8
0
 10
35
 11
33.852
 20
93.376
 21
93.852
  0
LINE
  8
0
 10
33.852
 11
33.376
 20
93.852
 21
95
  0
LINE
  8
0
 10
34.85
 11
34.85
 20
-52.881
 21
-42.319
  0
LINE
  8
0
 10
34.85
 11
42.319
 20
-42.319
 21
-34.85
  0
LINE
  8
0
 10
42.319
 11
52.881
 20
-34.85
 21
-34.85
  0
LINE
  8
0
 10
52.881
 11
60.35
 20
-34.85
 21
-42.319
  0
LINE
  8
0
 10
60.35
 11
60.35
 20
-42.319
 21
-52.881
  0
LINE
  8
0
 10
60.35
 11
52.881
 20
-52.881
 21
-60.35
  0
LINE
  8
0
 10
52.881
 11
42.319
 20
-60.35
 21
-60.35
  0
LINE
  8
0
 10
42.319
 11
34.85
 20
-60.35
 21
-52.881
  0
LINE
  8
0
 10
34.85
 11
34.85
 20
42.319
 21
52.881
  0
LINE
  8
0
 10
34.85
 11
42.319
 20
52.881
 21
60.35
  0
LINE
  8
0
 10
42.319
 11
52.881
 20
60.35
 21
60.35
  0
LINE
  8
0
 10
52.881
 11
60.35
 20
60.35
 21
52.881
  0
LINE
  8
0
 10
60.35
 11
60.35
 20
52.881
 21
42.319
  0
LINE
  8
0
 10
60.35
 11
52.881
 20
42.319
 21
34.85
  0
LINE
  8
0
 10
52.881
 11
42.319
 20
34.85
 21
34.85
  0
LINE
  8
0
 10
42.319
 11
34.85
 20
34.85
 21
42.319
  0
LINE
  8
0
 10
68
 11
68
 20
-80.021
 21
-72.979
  0
LINE
  8
0
 10
68
 11
72.979
 20
-72.979
 21
-68
  0
LINE
  8
0
 10
72.979
 11
80.021
 20
-68
 21
-68
  0
LINE
  8
0
 10
80.021
 11
85
 20
-68
 21
-72.979
  0
LINE
  8
0
 10
85
 11
85
 20
-72.979
 21
-80.021
  0
LINE
  8
0
 10
85
 11
80.021
 20
-80.021
 21
-85
  0
LINE
  8
0
 10
80.021
 11
72.979
 20
-85
 21
-85
  0
LINE
  8
0
 10
72.979
 11
68
 20
-85
 21
-80.021
  0
LINE
  8
0
 10
68
 11
68
 20
72.979
 21
80.021
  0
LINE
  8
0
 10
68
 11
72.979
 20
80.021
 21
85
  0
LINE
  8
0
 10
72.979
 11
80.021
 20
85
 21
85
  0
LINE
  8
0
 10
80.021
 11
85
 20
85
 21
80.021
  0
LINE
  8
0
 10
85
 11
85
 20
80.021
 21
72.979
  0
LINE
  8
0
 10
85
 11
80.021
 20
72.979
 21
68
  0
LINE
  8
0
 10
80.021
 11
72.979
 20
68
 21
68
  0
LINE
  8
0
 10
72.979
 11
68
 20
68
 21
72.979
  0
LINE
  8
0
 10
73.376
 11
73.852
 20
-35
 21
-33.852
  0
LINE
  8
0
 10
73.852
 11
75
 20
-33.852
 21
-33.376
  0
LINE
  8
0
 10
75
 11
76.148
 20
-33.376
 21
-33.852
  0
LINE
  8
0
 10
76.148
 11
76.624
 20
-33.852
 21
-35
  0
LINE
  8
0
 10
76.624
 11
76.148
 20
-35
 21
-36.148
  0
LINE
  8
0
 10
76.148
 11
75
 20
-36.148
 21
-36.624
  0
LINE
  8
0
 10
75
 11
73.852
 20
-36.624
 21
-36.148
  0
LINE
  8
0
 10
73.852
 11
73.376
 20
-36.148
 21
-35
  0
LINE
  8
0
 10
73.376
 11
73.852
 20
35
 21
36.148
  0
LINE
  8
0
 10
73.852
 11
75
 20
36.148
 21
36.624
  0
LINE
  8
0
 10
75
 11
76.148
 20
36.624
 21
36.148
  0
LINE
  8
0
 10
76.148
 11
76.624
 20
36.148
 21
35
  0
LINE
  8
0
 10
76.624
 11
76.148
 20
35
 21
33.852
  0
LINE
  8
0
 10
76.148
 11
75
 20
33.852
 21
33.376
  0
LINE
  8
0
 10
75
 11
73.852
 20
33.376
 21
33.852
  0
LINE
  8
0
 10
73.852
 11
73.376
 20
33.852
 21
35
  0
LINE
  8
0
 10
80
 11
80
 20
-47
 21
-23
  0
LINE
  8
0
 10
80
 11
90
 20
-23
 21
-23
  0
LINE
  8
0
 10
90
 11
90
 20
-23
 21
-47
  0
LINE
  8
0
 10
90
 11
80
 20
-47
 21
-47
  0
LINE
  8
0
 10
80
 11
80
 20
23
 21
47
  0
LINE
  8
0
 10
80
 11
90
 20
47
 21
47
  0
LINE
  8
0
 10
90
 11
90
 20
47
 21
23
  0
LINE
  8
0
 10
90
 11
80
 20
23
 21
23
  0
LINE
  8
0
 10
87.876
 11
88.352
 20
-104.7
 21
-103.552
  0
LINE
  8
0
 10
88.352
 11
89.5
 20
-103.552
 21
-103.076
  0
LINE
  8
0
 10
89.5
 11
90.648
 20
-103.076
 21
-103.552
  0
LINE
  8
0
 10
90.648
 11
91.124
 20
-103.552
 21
-104.7
  0
LINE
  8
0
 10
91.124
 11
90.648
 20
-104.7
 21
-105.848
  0
LINE
  8
0
 10
90.648
 11
89.5
 20
-105.848
 21
-106.324
  0
LINE
  8
0
 10
89.5
 11
88.352
 20
-106.324
 21
-105.848
  0
LINE
  8
0
 10
88.352
 11
87.876
 20
-105.848
 21
-104.7
  0
LINE
  8
0
 10
87.876
 11
88.352
 20
-97.7
 21
-96.552
  0
LINE
  8
0
 10
88.352
 11
89.5
 20
-96.552
 21
-96.076
  0
LINE
  8
0
 10
89.5
 11
90.648
 20
-96.076
 21
-96.552
  0
LINE
  8
0
 10
90.648
 11
91.124
 20
-96.552
 21
-97.7
  0
LINE
  8
0
 10
91.124
 11
90.648
 20
-97.7
 21
-98.848
  0
LINE
  8
0
 10
90.648
 11
89.5
 20
-98.848
 21
-99.324
  0
LINE
  8
0
 10
89.5
 11
88.352
 20
-99.324
 21
-98.848
  0
LINE
  8
0
 10
88.352
 11
87.876
 20
-98.848
 21
-97.7
  0
LINE
  8
0
 10
87.876
 11
88.352
 20
97.7
 21
98.848
  0
LINE
  8
0
 10
88.352
 11
89.5
 20
98.848
 21
99.324
  0
LINE
  8
0
 10
89.5
 11
90.648
 20
99.324
 21
98.848
  0
LINE
  8
0
 10
90.648
 11
91.124
 20
98.848
 21
97.7
  0
LINE
  8
0
 10
91.124
 11
90.648
 20
97.7
 21
96.552
  0
LINE
  8
0
 10
90.648
 11
89.5
 20
96.552
 21
96.076
  0
LINE
  8
0
 10
89.5
 11
88.352
 20
96.076
 21
96.552
  0
LINE
  8
0
 10
88.352
 11
87.876
 20
96.552
 21
97.7
  0
LINE
  8
0
 10
87.876
 11
88.352
 20
104.7
 21
105.848
  0
LINE
  8
0
 10
88.352
 11
89.5
 20
105.848
 21
106.324
  0
LINE
  8
0
 10
89.5
 11
90.648
 20
106.324
 21
105.848
  0
LINE
  8
0
 10
90.648
 11
91.124
 20
105.848
 21
104.7
  0
LINE
  8
0
 10
91.124
 11
90.648
 20
104.7
 21
103.552
  0
LINE
  8
0
 10
90.648
 11
89.5
 20
103.552
 21
103.076
  0
LINE
  8
0
 10
89.5
 11
88.352
 20
103.076
 21
103.552
  0
LINE
  8
0
 10
88.352
 11
87.876
 20
103.552
 21
104.7
  0
LINE
  8
0
 10
93.376
 11
93.852
 20
-35
 21
-33.852
  0
LINE
  8
0
 10
93.852
 11
95
 20
-33.852
 21
-33.376
  0
LINE
  8
0
 10
95
 11
96.148
 20
-33.376
 21
-33.852
  0
LINE
  8
0
 10
96.148
 11
96.624
 20
-33.852
 21
-35
  0
LINE
  8
0
 10
96.624
 11
96.148
 20
-35
 21
-36.148
  0
LINE
  8
0
 10
96.148
 11
95
 20
-36.148
 21
-36.624
  0
LINE
  8
0
 10
95
 11
93.852
 20
-36.624
 21
-36.148
  0
LINE
  8
0
 10
93.852
 11
93.376
 20
-36.148
 21
-35
  0
LINE
  8
0
 10
93.376
 11
93.852
 20
35
 21
36.148
  0
LINE
  8
0
 10
93.852
 11
95
 20
36.148
 21
36.624
  0
LINE
  8
0
 10
95
 11
96.148
 20
36.624
 21
36.148
  0
LINE
  8
0
 10
96.148
 11
96.624
 20
36.148
 21
35
  0
LINE
  8
0
 10
96.624
 11
96.148
 20
35
 21
33.852
  0
LINE
  8
0
 10
96.148
 11
95
 20
33.852
 21
33.376
  0
LINE
  8
0
 10
95
 11
93.852
 20
33.376
 21
33.852
  0
LINE
  8
0
 10
93.852
 11
93.376
 20
33.852
 21
35
  0
LINE
  8
0
 10
96.076
 11
96.552
 20
-89.5
 21
-88.352
  0
LINE
  8
0
 10
96.552
 11
97.7
 20
-88.352
 21
-87.876
  0
LINE
  8
0
 10
97.7
 11
98.848
 20
-87.876
 21
-88.352
  0
LINE
  8
0
 10
98.848
 11
99.324
 20
-88.352
 21
-89.5
  0
LINE
  8
0
 10
99.324
 11
98.848
 20
-89.5
 21
-90.648
  0
LINE
  8
0
 10
98.848
 11
97.7
 20
-90.648
 21
-91.124
  0
LINE
  8
0
 10
97.7
 11
96.552
 20
-91.124
 21
-90.648
  0
LINE
  8
0
 10
96.552
 11
96.076
 20
-90.648
 21
-89.5
  0
LINE
  8
0
 10
96.076
 11
96.552
 20
-15
 21
-13.852
  0
LINE
  8
0
 10
96.552
 11
97.7
 20
-13.852
 21
-13.376
  0
LINE
  8
0
 10
97.7
 11
98.848
 20
-13.376
 21
-13.852
  0
LINE
  8
0
 10
98.848
 11
99.324
 20
-13.852
 21
-15
  0
LINE
  8
0
 10
99.324
 11
98.848
 20
-15
 21
-16.148
  0
LINE
  8
0
 10
98.848
 11
97.7
 20
-16.148
 21
-16.624
  0
LINE
  8
0
 10
97.7
 11
96.552
 20
-16.624
 21
-16.148
  0
LINE
  8
0
 10
96.552
 11
96.076
 20
-16.148
 21
-15
  0
LINE
  8
0
 10
96.076
 11
96.552
 20
15
 21
16.148
  0
LINE
  8
0
 10
96.552
 11
97.7
 20
16.148
 21
16.624
  0
LINE
  8
0
 10
97.7
 11
98.848
 20
16.624
 21
16.148
  0
LINE
  8
0
 10
98.848
 11
99.324
 20
16.148
 21
15
  0
LINE
  8
0
 10
99.324
 11
98.848
 20
15
 21
13.852
  0
LINE
  8
0
 10
98.848
 11
97.7
 20
13.852
 21
13.376
  0
LINE
  8
0
 10
97.7
 11
96.552
 20
13.376
 21
13.852
  0
LINE
  8
0
 10
96.552
 11
96.076
 20
13.852
 21
15
  0
LINE
  8
0
 10
96.076
 11
96.552
 20
89.5
 21
90.648
  0
LINE
  8
0
 10
96.552
 11
97.7
 20
90.648
 21
91.124
  0
LINE
  8
0
 10
97.7
 11
98.848
 20
91.124
 21
90.648
  0
LINE
  8
0
 10
98.848
 11
99.324
 20
90.648
 21
89.5
  0
LINE
  8
0
 10
99.324
 11
98.848
 20
89.5
 21
88.352
  0
LINE
  8
0
 10
98.848
 11
97.7
 20
88.352
 21
87.876
  0
LINE
  8
0
 10
97.7
 11
96.552
 20
87.876
 21
88.352
  0
LINE
  8
0
 10
96.552
 11
96.076
 20
88.352
 21
89.5
  0
LINE
  8
0
 10
102.768
 11
103.275
 20
-104.5
 21
-103.275
  0
LINE
  8
0
 10
103.275
 11
104.5
 20
-103.275
 21
-102.768
  0
LINE
  8
0
 10
104.5
 11
105.725
 20
-102.768
 21
-103.275
  0
LINE
  8
0
 10
105.725
 11
106.232
 20
-103.275
 21
-104.5
  0
LINE
  8
0
 10
106.232
 11
105.725
 20
-104.5
 21
-105.725
  0
LINE
  8
0
 10
105.725
 11
104.5
 20
-105.725
 21
-106.232
  0
LINE
  8
0
 10
104.5
 11
103.275
 20
-106.232
 21
-105.725
  0
LINE
  8
0
 10
103.275
 11
102.768
 20
-105.725
 21
-104.5
  0
LINE
  8
0
 10
102.768
 11
103.275
 20
0
 21
1.225
  0
LINE
  8
0
 10
103.275
 11
104.5
 20
1.225
 21
1.732
  0
LINE
  8
0
 10
104.5
 11
105.725
 20
1.732
 21
1.225
  0
LINE
  8
0
 10
105.725
 11
106.232
 20
1.225
 21
0
  0
LINE
  8
0
 10
106.232
 11
105.725
 20
0
 21
-1.225
  0
LINE
  8
0
 10
105.725
 11
104.5
 20
-1.225
 21
-1.732
  0
LINE
  8
0
 10
104.5
 11
103.275
 20
-1.732
 21
-1.225
  0
LINE
  8
0
 10
103.275
 11
102.768
 20
-1.225
 21
0
  0
LINE
  8
0
 10
102.768
 11
103.275
 20
104.5
 21
105.725
  0
LINE
  8
0
 10
103.275
 11
104.5
 20
105.725
 21
106.232
  0
LINE
  8
0
 10
104.5
 11
105.725
 20
106.232
 21
105.725
  0
LINE
  8
0
 10
105.725
 11
106.232
 20
105.725
 21
104.5
  0
LINE
  8
0
 10
106.232
 11
105.725
 20
104.5
 21
103.275
  0
LINE
  8
0
 10
105.725
 11
104.5
 20
103.275
 21
102.768
  0
LINE
  8
0
 10
104.5
 11
103.275
 20
102.768
 21
103.275
  0
LINE
  8
0
 10
103.275
 11
102.768
 20
103.275
 21
104.5
  0
LINE
  8
0
 10
103.076
 11
103.552
 20
-89.5
 21
-88.352
  0
LINE
  8
0
 10
103.552
 11
104.7
 20
-88.352
 21
-87.876
  0
LINE
  8
0
 10
104.7
 11
105.848
 20
-87.876
 21
-88.352
  0
LINE
  8
0
 10
105.848
 11
106.324
 20
-88.352
 21
-89.5
  0
LINE
  8
0
 10
106.324
 11
105.848
 20
-89.5
 21
-90.648
  0
LINE
  8
0
 10
105.848
 11
104.7
 20
-90.648
 21
-91.124
  0
LINE
  8
0
 10
104.7
 11
103.552
 20
-91.124
 21
-90.648
  0
LINE
  8
0
 10
103.552
 11
103.076
 20
-90.648
 21
-89.5
  0
LINE
  8
0
 10
103.076
 11
103.552
 20
-15
 21
-13.852
  0
LINE
  8
0
 10
103.552
 11
104.7
 20
-13.852
 21
-13.376
  0
LINE
  8
0
 10
104.7
 11
105.848
 20
-13.376
 21
-13.852
  0
LINE
  8
0
 10
105.848
 11
106.324
 20
-13.852
 21
-15
  0
LINE
  8
0
 10
106.324
 11
105.848
 20
-15
 21
-16.148
  0
LINE
  8
0
 10
105.848
 11
104.7
 20
-16.148
 21
-16.624
  0
LINE
  8
0
 10
104.7
 11
103.552
 20
-16.624
 21
-16.148
  0
LINE
  8
0
 10
103.552
 11
103.076
 20
-16.148
 21
-15
  0
LINE
  8
0
 10
103.076
 11
103.552
 20
15
 21
16.148
  0
LINE
  8
0
 10
103.552
 11
104.7
 20
16.148
 21
16.624
  0
LINE
  8
0
 10
104.7
 11
105.848
 20
16.624
 21
16.148
  0
LINE
  8
0
 10
105.848
 11
106.324
 20
16.148
 21
15
  0
LINE
  8
0
 10
106.324
 11
105.848
 20
15
 21
13.852
  0
LINE
  8
0
 10
105.848
 11
104.7
 20
13.852
 21
13.376
  0
LINE
  8
0
 10
104.7
 11
103.552
 20
13.376
 21
13.852
  0
LINE
  8
0
 10
103.552
 11
103.076
 20
13.852
 21
15
  0
LINE
  8
0
 10
103.076
 11
103.552
 20
89.5
 21
90.648
  0
LINE
  8
0
 10
103.552
 11
104.7
 20
90.648
 21
91.124
  0
LINE
  8
0
 10
104.7
 11
105.848
 20
91.124
 21
90.648
  0
LINE
  8
0
 10
105.848
 11
106.324
 20
90.648
 21
89.5
  0
LINE
  8
0
 10
106.324
 11
105.848
 20
89.5
 21
88.352
  0
LINE
  8
0
 10
105.848
 11
104.7
 20
88.352
 21
87.876
  0
LINE
  8
0
 10
104.7
 11
103.552
 20
87.876
 21
88.352
  0
LINE
  8
0
 10
103.552
 11
103.076
 20
88.352
 21
89.5
  0
ENDSEC
  0
SECTION
  2
OBJECTS
  0
DICTIONARY
  0
ENDSEC
  0
EOF
