  0
SECTION
  2
BLOCKS
  0
ENDSEC
  0
SECTION
  2
ENTITIES
  0
LINE
  8
0
 10
-110
 11
-110
 20
-106.464
 21
106.464
  0
LINE
  8
0
 10
-110
 11
-106.464
 20
106.464
 21
110
  0
LINE
  8
0
 10
-106.464
 11
106.464
 20
110
 21
110
  0
LINE
  8
0
 10
106.464
 11
110
 20
110
 21
106.464
  0
LINE
  8
0
 10
110
 11
110
 20
106.464
 21
-106.464
  0
LINE
  8
0
 10
110
 11
106.464
 20
-106.464
 21
-110
  0
LINE
  8
0
 10
106.464
 11
-106.464
 20
-110
 21
-110
  0
LINE
  8
0
 10
-106.464
 11
-110
 20
-110
 21
-106.464
  0
LINE
  8
0
 10
-106.324
 11
-105.848
 20
-89.5
 21
-88.352
  0
LINE
  8
0
 10
-105.848
 11
-104.7
 20
-88.352
 21
-87.876
  0
LINE
  8
0
 10
-104.7
 11
-103.552
 20
-87.876
 21
-88.352
  0
LINE
  8
0
 10
-103.552
 11
-103.076
 20
-88.352
 21
-89.5
  0
LINE
  8
0
 10
-103.076
 11
-103.552
 20
-89.5
 21
-90.648
  0
LINE
  8
0
 10
-103.552
 11
-104.7
 20
-90.648
 21
-91.124
  0
LINE
  8
0
 10
-104.7
 11
-105.848
 20
-91.124
 21
-90.648
  0
LINE
  8
0
 10
-105.848
 11
-106.324
 20
-90.648
 21
-89.5
  0
LINE
  8
0
 10
-106.324
 11
-105.848
 20
-15
 21
-13.852
  0
LINE
  8
0
 10
-105.848
 11
-104.7
 20
-13.852
 21
-13.376
  0
LINE
  8
0
 10
-104.7
 11
-103.552
 20
-13.376
 21
-13.852
  0
LINE
  8
0
 10
-103.552
 11
-103.076
 20
-13.852
 21
-15
  0
LINE
  8
0
 10
-103.076
 11
-103.552
 20
-15
 21
-16.148
  0
LINE
  8
0
 10
-103.552
 11
-104.7
 20
-16.148
 21
-16.624
  0
LINE
  8
0
 10
-104.7
 11
-105.848
 20
-16.624
 21
-16.148
  0
LINE
  8
0
 10
-105.848
 11
-106.324
 20
-16.148
 21
-15
  0
LINE
  8
0
 10
-106.324
 11
-105.848
 20
15
 21
16.148
  0
LINE
  8
0
 10
-105.848
 11
-104.7
 20
16.148
 21
16.624
  0
LINE
  8
0
 10
-104.7
 11
-103.552
 20
16.624
 21
16.148
  0
LINE
  8
0
 10
-103.552
 11
-103.076
 20
16.148
 21
15
  0
LINE
  8
0
 10
-103.076
 11
-103.552
 20
15
 21
13.852
  0
LINE
  8
0
 10
-103.552
 11
-104.7
 20
13.852
 21
13.376
  0
LINE
  8
0
 10
-104.7
 11
-105.848
 20
13.376
 21
13.852
  0
LINE
  8
0
 10
-105.848
 11
-106.324
 20
13.852
 21
15
  0
LINE
  8
0
 10
-106.324
 11
-105.848
 20
89.5
 21
90.648
  0
LINE
  8
0
 10
-105.848
 11
-104.7
 20
90.648
 21
91.124
  0
LINE
  8
0
 10
-104.7
 11
-103.552
 20
91.124
 21
90.648
  0
LINE
  8
0
 10
-103.552
 11
-103.076
 20
90.648
 21
89.5
  0
LINE
  8
0
 10
-103.076
 11
-103.552
 20
89.5
 21
88.352
  0
LINE
  8
0
 10
-103.552
 11
-104.7
 20
88.352
 21
87.876
  0
LINE
  8
0
 10
-104.7
 11
-105.848
 20
87.876
 21
88.352
  0
LINE
  8
0
 10
-105.848
 11
-106.324
 20
88.352
 21
89.5
  0
LINE
  8
0
 10
-106.232
 11
-105.725
 20
-104.5
 21
-103.275
  0
LINE
  8
0
 10
-105.725
 11
-104.5
 20
-103.275
 21
-102.768
  0
LINE
  8
0
 10
-104.5
 11
-103.275
 20
-102.768
 21
-103.275
  0
LINE
  8
0
 10
-103.275
 11
-102.768
 20
-103.275
 21
-104.5
  0
LINE
  8
0
 10
-102.768
 11
-103.275
 20
-104.5
 21
-105.725
  0
LINE
  8
0
 10
-103.275
 11
-104.5
 20
-105.725
 21
-106.232
  0
LINE
  8
0
 10
-104.5
 11
-105.725
 20
-106.232
 21
-105.725
  0
LINE
  8
0
 10
-105.725
 11
-106.232
 20
-105.725
 21
-104.5
  0
LINE
  8
0
 10
-106.232
 11
-105.725
 20
0
 21
1.225
  0
LINE
  8
0
 10
-105.725
 11
-104.5
 20
1.225
 21
1.732
  0
LINE
  8
0
 10
-104.5
 11
-103.275
 20
1.732
 21
1.225
  0
LINE
  8
0
 10
-103.275
 11
-102.768
 20
1.225
 21
0
  0
LINE
  8
0
 10
-102.768
 11
-103.275
 20
0
 21
-1.225
  0
LINE
  8
0
 10
-103.275
 11
-104.5
 20
-1.225
 21
-1.732
  0
LINE
  8
0
 10
-104.5
 11
-105.725
 20
-1.732
 21
-1.225
  0
LINE
  8
0
 10
-105.725
 11
-106.232
 20
-1.225
 21
0
  0
LINE
  8
0
 10
-106.232
 11
-105.725
 20
104.5
 21
105.725
  0
LINE
  8
0
 10
-105.725
 11
-104.5
 20
105.725
 21
106.232
  0
LINE
  8
0
 10
-104.5
 11
-103.275
 20
106.232
 21
105.725
  0
LINE
  8
0
 10
-103.275
 11
-102.768
 20
105.725
 21
104.5
  0
LINE
  8
0
 10
-102.768
 11
-103.275
 20
104.5
 21
103.275
  0
LINE
  8
0
 10
-103.275
 11
-104.5
 20
103.275
 21
102.768
  0
LINE
  8
0
 10
-104.5
 11
-105.725
 20
102.768
 21
103.275
  0
LINE
  8
0
 10
-105.725
 11
-106.232
 20
103.275
 21
104.5
  0
LINE
  8
0
 10
-99.324
 11
-98.848
 20
-89.5
 21
-88.352
  0
LINE
  8
0
 10
-98.848
 11
-97.7
 20
-88.352
 21
-87.876
  0
LINE
  8
0
 10
-97.7
 11
-96.552
 20
-87.876
 21
-88.352
  0
LINE
  8
0
 10
-96.552
 11
-96.076
 20
-88.352
 21
-89.5
  0
LINE
  8
0
 10
-96.076
 11
-96.552
 20
-89.5
 21
-90.648
  0
LINE
  8
0
 10
-96.552
 11
-97.7
 20
-90.648
 21
-91.124
  0
LINE
  8
0
 10
-97.7
 11
-98.848
 20
-91.124
 21
-90.648
  0
LINE
  8
0
 10
-98.848
 11
-99.324
 20
-90.648
 21
-89.5
  0
LINE
  8
0
 10
-99.324
 11
-98.848
 20
-15
 21
-13.852
  0
LINE
  8
0
 10
-98.848
 11
-97.7
 20
-13.852
 21
-13.376
  0
LINE
  8
0
 10
-97.7
 11
-96.552
 20
-13.376
 21
-13.852
  0
LINE
  8
0
 10
-96.552
 11
-96.076
 20
-13.852
 21
-15
  0
LINE
  8
0
 10
-96.076
 11
-96.552
 20
-15
 21
-16.148
  0
LINE
  8
0
 10
-96.552
 11
-97.7
 20
-16.148
 21
-16.624
  0
LINE
  8
0
 10
-97.7
 11
-98.848
 20
-16.624
 21
-16.148
  0
LINE
  8
0
 10
-98.848
 11
-99.324
 20
-16.148
 21
-15
  0
LINE
  8
0
 10
-99.324
 11
-98.848
 20
15
 21
16.148
  0
LINE
  8
0
 10
-98.848
 11
-97.7
 20
16.148
 21
16.624
  0
LINE
  8
0
 10
-97.7
 11
-96.552
 20
16.624
 21
16.148
  0
LINE
  8
0
 10
-96.552
 11
-96.076
 20
16.148
 21
15
  0
LINE
  8
0
 10
-96.076
 11
-96.552
 20
15
 21
13.852
  0
LINE
  8
0
 10
-96.552
 11
-97.7
 20
13.852
 21
13.376
  0
LINE
  8
0
 10
-97.7
 11
-98.848
 20
13.376
 21
13.852
  0
LINE
  8
0
 10
-98.848
 11
-99.324
 20
13.852
 21
15
  0
LINE
  8
0
 10
-99.324
 11
-98.848
 20
89.5
 21
90.648
  0
LINE
  8
0
 10
-98.848
 11
-97.7
 20
90.648
 21
91.124
  0
LINE
  8
0
 10
-97.7
 11
-96.552
 20
91.124
 21
90.648
  0
LINE
  8
0
 10
-96.552
 11
-96.076
 20
90.648
 21
89.5
  0
LINE
  8
0
 10
-96.076
 11
-96.552
 20
89.5
 21
88.352
  0
LINE
  8
0
 10
-96.552
 11
-97.7
 20
88.352
 21
87.876
  0
LINE
  8
0
 10
-97.7
 11
-98.848
 20
87.876
 21
88.352
  0
LINE
  8
0
 10
-98.848
 11
-99.324
 20
88.352
 21
89.5
  0
LINE
  8
0
 10
-98.624
 11
-98.148
 20
-35
 21
-33.852
  0
LINE
  8
0
 10
-98.148
 11
-97
 20
-33.852
 21
-33.376
  0
LINE
  8
0
 10
-97
 11
-95.852
 20
-33.376
 21
-33.852
  0
LINE
  8
0
 10
-95.852
 11
-95.376
 20
-33.852
 21
-35
  0
LINE
  8
0
 10
-95.376
 11
-95.852
 20
-35
 21
-36.148
  0
LINE
  8
0
 10
-95.852
 11
-97
 20
-36.148
 21
-36.624
  0
LINE
  8
0
 10
-97
 11
-98.148
 20
-36.624
 21
-36.148
  0
LINE
  8
0
 10
-98.148
 11
-98.624
 20
-36.148
 21
-35
  0
LINE
  8
0
 10
-98.624
 11
-98.148
 20
35
 21
36.148
  0
LINE
  8
0
 10
-98.148
 11
-97
 20
36.148
 21
36.624
  0
LINE
  8
0
 10
-97
 11
-95.852
 20
36.624
 21
36.148
  0
LINE
  8
0
 10
-95.852
 11
-95.376
 20
36.148
 21
35
  0
LINE
  8
0
 10
-95.376
 11
-95.852
 20
35
 21
33.852
  0
LINE
  8
0
 10
-95.852
 11
-97
 20
33.852
 21
33.376
  0
LINE
  8
0
 10
-97
 11
-98.148
 20
33.376
 21
33.852
  0
LINE
  8
0
 10
-98.148
 11
-98.624
 20
33.852
 21
35
  0
LINE
  8
0
 10
-92
 11
-92
 20
-47
 21
-23
  0
LINE
  8
0
 10
-92
 11
-82
 20
-23
 21
-23
  0
LINE
  8
0
 10
-82
 11
-82
 20
-23
 21
-47
  0
LINE
  8
0
 10
-82
 11
-92
 20
-47
 21
-47
  0
LINE
  8
0
 10
-92
 11
-92
 20
23
 21
47
  0
LINE
  8
0
 10
-92
 11
-82
 20
47
 21
47
  0
LINE
  8
0
 10
-82
 11
-82
 20
47
 21
23
  0
LINE
  8
0
 10
-82
 11
-92
 20
23
 21
23
  0
LINE
  8
0
 10
-91.124
 11
-90.648
 20
-104.7
 21
-103.552
  0
LINE
  8
0
 10
-90.648
 11
-89.5
 20
-103.552
 21
-103.076
  0
LINE
  8
0
 10
-89.5
 11
-88.352
 20
-103.076
 21
-103.552
  0
LINE
  8
0
 10
-88.352
 11
-87.876
 20
-103.552
 21
-104.7
  0
LINE
  8
0
 10
-87.876
 11
-88.352
 20
-104.7
 21
-105.848
  0
LINE
  8
0
 10
-88.352
 11
-89.5
 20
-105.848
 21
-106.324
  0
LINE
  8
0
 10
-89.5
 11
-90.648
 20
-106.324
 21
-105.848
  0
LINE
  8
0
 10
-90.648
 11
-91.124
 20
-105.848
 21
-104.7
  0
LINE
  8
0
 10
-91.124
 11
-90.648
 20
-97.7
 21
-96.552
  0
LINE
  8
0
 10
-90.648
 11
-89.5
 20
-96.552
 21
-96.076
  0
LINE
  8
0
 10
-89.5
 11
-88.352
 20
-96.076
 21
-96.552
  0
LINE
  8
0
 10
-88.352
 11
-87.876
 20
-96.552
 21
-97.7
  0
LINE
  8
0
 10
-87.876
 11
-88.352
 20
-97.7
 21
-98.848
  0
LINE
  8
0
 10
-88.352
 11
-89.5
 20
-98.848
 21
-99.324
  0
LINE
  8
0
 10
-89.5
 11
-90.648
 20
-99.324
 21
-98.848
  0
LINE
  8
0
 10
-90.648
 11
-91.124
 20
-98.848
 21
-97.7
  0
LINE
  8
0
 10
-91.124
 11
-90.648
 20
97.7
 21
98.848
  0
LINE
  8
0
 10
-90.648
 11
-89.5
 20
98.848
 21
99.324
  0
LINE
  8
0
 10
-89.5
 11
-88.352
 20
99.324
 21
98.848
  0
LINE
  8
0
 10
-88.352
 11
-87.876
 20
98.848
 21
97.7
  0
LINE
  8
0
 10
-87.876
 11
-88.352
 20
97.7
 21
96.552
  0
LINE
  8
0
 10
-88.352
 11
-89.5
 20
96.552
 21
96.076
  0
LINE
  8
0
 10
-89.5
 11
-90.648
 20
96.076
 21
96.552
  0
LINE
  8
0
 10
-90.648
 11
-91.124
 20
96.552
 21
97.7
  0
LINE
  8
0
 10
-91.124
 11
-90.648
 20
104.7
 21
105.848
  0
LINE
  8
0
 10
-90.648
 11
-89.5
 20
105.848
 21
106.324
  0
LINE
  8
0
 10
-89.5
 11
-88.352
 20
106.324
 21
105.848
  0
LINE
  8
0
 10
-88.352
 11
-87.876
 20
105.848
 21
104.7
  0
LINE
  8
0
 10
-87.876
 11
-88.352
 20
104.7
 21
103.552
  0
LINE
  8
0
 10
-88.352
 11
-89.5
 20
103.552
 21
103.076
  0
LINE
  8
0
 10
-89.5
 11
-90.648
 20
103.076
 21
103.552
  0
LINE
  8
0
 10
-90.648
 11
-91.124
 20
103.552
 21
104.7
  0
LINE
  8
0
 10
-87
 11
-87
 20
-81.904
 21
-74.696
  0
LINE
  8
0
 10
-87
 11
-81.904
 20
-74.696
 21
-69.6
  0
LINE
  8
0
 10
-81.904
 11
-74.696
 20
-69.6
 21
-69.6
  0
LINE
  8
0
 10
-74.696
 11
-69.6
 20
-69.6
 21
-74.696
  0
LINE
  8
0
 10
-69.6
 11
-69.6
 20
-74.696
 21
-81.904
  0
LINE
  8
0
 10
-69.6
 11
-74.696
 20
-81.904
 21
-87
  0
LINE
  8
0
 10
-74.696
 11
-81.904
 20
-87
 21
-87
  0
LINE
  8
0
 10
-81.904
 11
-87
 20
-87
 21
-81.904
  0
LINE
  8
0
 10
-87
 11
-87
 20
74.696
 21
81.904
  0
LINE
  8
0
 10
-87
 11
-81.904
 20
81.904
 21
87
  0
LINE
  8
0
 10
-81.904
 11
-74.696
 20
87
 21
87
  0
LINE
  8
0
 10
-74.696
 11
-69.6
 20
87
 21
81.904
  0
LINE
  8
0
 10
-69.6
 11
-69.6
 20
81.904
 21
74.696
  0
LINE
  8
0
 10
-69.6
 11
-74.696
 20
74.696
 21
69.6
  0
LINE
  8
0
 10
-74.696
 11
-81.904
 20
69.6
 21
69.6
  0
LINE
  8
0
 10
-81.904
 11
-87
 20
69.6
 21
74.696
  0
LINE
  8
0
 10
-78.624
 11
-78.148
 20
-35
 21
-33.852
  0
LINE
  8
0
 10
-78.148
 11
-77
 20
-33.852
 21
-33.376
  0
LINE
  8
0
 10
-77
 11
-75.852
 20
-33.376
 21
-33.852
  0
LINE
  8
0
 10
-75.852
 11
-75.376
 20
-33.852
 21
-35
  0
LINE
  8
0
 10
-75.376
 11
-75.852
 20
-35
 21
-36.148
  0
LINE
  8
0
 10
-75.852
 11
-77
 20
-36.148
 21
-36.624
  0
LINE
  8
0
 10
-77
 11
-78.148
 20
-36.624
 21
-36.148
  0
LINE
  8
0
 10
-78.148
 11
-78.624
 20
-36.148
 21
-35
  0
LINE
  8
0
 10
-78.624
 11
-78.148
 20
35
 21
36.148
  0
LINE
  8
0
 10
-78.148
 11
-77
 20
36.148
 21
36.624
  0
LINE
  8
0
 10
-77
 11
-75.852
 20
36.624
 21
36.148
  0
LINE
  8
0
 10
-75.852
 11
-75.376
 20
36.148
 21
35
  0
LINE
  8
0
 10
-75.376
 11
-75.852
 20
35
 21
33.852
  0
LINE
  8
0
 10
-75.852
 11
-77
 20
33.852
 21
33.376
  0
LINE
  8
0
 10
-77
 11
-78.148
 20
33.376
 21
33.852
  0
LINE
  8
0
 10
-78.148
 11
-78.624
 20
33.852
 21
35
  0
LINE
  8
0
 10
-70.47
 11
-70.47
 20
-9.009
 21
9.009
  0
LINE
  8
0
 10
-70.47
 11
-57.729
 20
9.009
 21
21.75
  0
LINE
  8
0
 10
-57.729
 11
-39.711
 20
21.75
 21
21.75
  0
LINE
  8
0
 10
-39.711
 11
-26.97
 20
21.75
 21
9.009
  0
LINE
  8
0
 10
-26.97
 11
-26.97
 20
9.009
 21
-9.009
  0
LINE
  8
0
 10
-26.97
 11
-39.711
 20
-9.009
 21
-21.75
  0
LINE
  8
0
 10
-39.711
 11
-57.729
 20
-21.75
 21
-21.75
  0
LINE
  8
0
 10
-57.729
 11
-70.47
 20
-21.75
 21
-9.009
  0
LINE
  8
0
 10
-61.77
 11
-61.77
 20
-54.125
 21
-43.315
  0
LINE
  8
0
 10
-61.77
 11
-54.125
 20
-43.315
 21
-35.67
  0
LINE
  8
0
 10
-54.125
 11
-43.315
 20
-35.67
 21
-35.67
  0
LINE
  8
0
 10
-43.315
 11
-35.67
 20
-35.67
 21
-43.315
  0
LINE
  8
0
 10
-35.67
 11
-35.67
 20
-43.315
 21
-54.125
  0
LINE
  8
0
 10
-35.67
 11
-43.315
 20
-54.125
 21
-61.77
  0
LINE
  8
0
 10
-43.315
 11
-54.125
 20
-61.77
 21
-61.77
  0
LINE
  8
0
 10
-54.125
 11
-61.77
 20
-61.77
 21
-54.125
  0
LINE
  8
0
 10
-61.77
 11
-61.77
 20
43.315
 21
54.125
  0
LINE
  8
0
 10
-61.77
 11
-54.125
 20
54.125
 21
61.77
  0
LINE
  8
0
 10
-54.125
 11
-43.315
 20
61.77
 21
61.77
  0
LINE
  8
0
 10
-43.315
 11
-35.67
 20
61.77
 21
54.125
  0
LINE
  8
0
 10
-35.67
 11
-35.67
 20
54.125
 21
43.315
  0
LINE
  8
0
 10
-35.67
 11
-43.315
 20
43.315
 21
35.67
  0
LINE
  8
0
 10
-43.315
 11
-54.125
 20
35.67
 21
35.67
  0
LINE
  8
0
 10
-54.125
 11
-61.77
 20
35.67
 21
43.315
  0
LINE
  8
0
 10
-47
 11
-47
 20
82
 21
92
  0
LINE
  8
0
 10
-47
 11
-23
 20
92
 21
92
  0
LINE
  8
0
 10
-23
 11
-23
 20
92
 21
82
  0
LINE
  8
0
 10
-23
 11
-47
 20
82
 21
82
  0
LINE
  8
0
 10
-36.624
 11
-36.148
 20
77
 21
78.148
  0
LINE
  8
0
 10
-36.148
 11
-35
 20
78.148
 21
78.624
  0
LINE
  8
0
 10
-35
 11
-33.852
 20
78.624
 21
78.148
  0
LINE
  8
0
 10
-33.852
 11
-33.376
 20
78.148
 21
77
  0
LINE
  8
0
 10
-33.376
 11
-33.852
 20
77
 21
75.852
  0
LINE
  8
0
 10
-33.852
 11
-35
 20
75.852
 21
75.376
  0
LINE
  8
0
 10
-35
 11
-36.148
 20
75.376
 21
75.852
  0
LINE
  8
0
 10
-36.148
 11
-36.624
 20
75.852
 21
77
  0
LINE
  8
0
 10
-36.624
 11
-36.148
 20
97
 21
98.148
  0
LINE
  8
0
 10
-36.148
 11
-35
 20
98.148
 21
98.624
  0
LINE
  8
0
 10
-35
 11
-33.852
 20
98.624
 21
98.148
  0
LINE
  8
0
 10
-33.852
 11
-33.376
 20
98.148
 21
97
  0
LINE
  8
0
 10
-33.376
 11
-33.852
 20
97
 21
95.852
  0
LINE
  8
0
 10
-33.852
 11
-35
 20
95.852
 21
95.376
  0
LINE
  8
0
 10
-35
 11
-36.148
 20
95.376
 21
95.852
  0
LINE
  8
0
 10
-36.148
 11
-36.624
 20
95.852
 21
97
  0
LINE
  8
0
 10
-22.124
 11
-21.648
 20
0
 21
1.148
  0
LINE
  8
0
 10
-21.648
 11
-20.5
 20
1.148
 21
1.624
  0
LINE
  8
0
 10
-20.5
 11
-19.352
 20
1.624
 21
1.148
  0
LINE
  8
0
 10
-19.352
 11
-18.876
 20
1.148
 21
0
  0
LINE
  8
0
 10
-18.876
 11
-19.352
 20
0
 21
-1.148
  0
LINE
  8
0
 10
-19.352
 11
-20.5
 20
-1.148
 21
-1.624
  0
LINE
  8
0
 10
-20.5
 11
-21.648
 20
-1.624
 21
-1.148
  0
LINE
  8
0
 10
-21.648
 11
-22.124
 20
-1.148
 21
0
  0
LINE
  8
0
 10
-21.75
 11
-21.75
 20
-57.729
 21
-39.711
  0
LINE
  8
0
 10
-21.75
 11
-9.009
 20
-39.711
 21
-26.97
  0
LINE
  8
0
 10
-9.009
 11
9.009
 20
-26.97
 21
-26.97
  0
LINE
  8
0
 10
9.009
 11
21.75
 20
-26.97
 21
-39.711
  0
LINE
  8
0
 10
21.75
 11
21.75
 20
-39.711
 21
-57.729
  0
LINE
  8
0
 10
21.75
 11
9.009
 20
-57.729
 21
-70.47
  0
LINE
  8
0
 10
9.009
 11
-9.009
 20
-70.47
 21
-70.47
  0
LINE
  8
0
 10
-9.009
 11
-21.75
 20
-70.47
 21
-57.729
  0
LINE
  8
0
 10
-21.75
 11
-21.75
 20
39.711
 21
57.729
  0
LINE
  8
0
 10
-21.75
 11
-9.009
 20
57.729
 21
70.47
  0
LINE
  8
0
 10
-9.009
 11
9.009
 20
70.47
 21
70.47
  0
LINE
  8
0
 10
9.009
 11
21.75
 20
70.47
 21
57.729
  0
LINE
  8
0
 10
21.75
 11
21.75
 20
57.729
 21
39.711
  0
LINE
  8
0
 10
21.75
 11
9.009
 20
39.711
 21
26.97
  0
LINE
  8
0
 10
9.009
 11
-9.009
 20
26.97
 21
26.97
  0
LINE
  8
0
 10
-9.009
 11
-21.75
 20
26.97
 21
39.711
  0
LINE
  8
0
 10
-16.624
 11
-16.148
 20
-104.7
 21
-103.552
  0
LINE
  8
0
 10
-16.148
 11
-15
 20
-103.552
 21
-103.076
  0
LINE
  8
0
 10
-15
 11
-13.852
 20
-103.076
 21
-103.552
  0
LINE
  8
0
 10
-13.852
 11
-13.376
 20
-103.552
 21
-104.7
  0
LINE
  8
0
 10
-13.376
 11
-13.852
 20
-104.7
 21
-105.848
  0
LINE
  8
0
 10
-13.852
 11
-15
 20
-105.848
 21
-106.324
  0
LINE
  8
0
 10
-15
 11
-16.148
 20
-106.324
 21
-105.848
  0
LINE
  8
0
 10
-16.148
 11
-16.624
 20
-105.848
 21
-104.7
  0
LINE
  8
0
 10
-16.624
 11
-16.148
 20
-97.7
 21
-96.552
  0
LINE
  8
0
 10
-16.148
 11
-15
 20
-96.552
 21
-96.076
  0
LINE
  8
0
 10
-15
 11
-13.852
 20
-96.076
 21
-96.552
  0
LINE
  8
0
 10
-13.852
 11
-13.376
 20
-96.552
 21
-97.7
  0
LINE
  8
0
 10
-13.376
 11
-13.852
 20
-97.7
 21
-98.848
  0
LINE
  8
0
 10
-13.852
 11
-15
 20
-98.848
 21
-99.324
  0
LINE
  8
0
 10
-15
 11
-16.148
 20
-99.324
 21
-98.848
  0
LINE
  8
0
 10
-16.148
 11
-16.624
 20
-98.848
 21
-97.7
  0
LINE
  8
0
 10
-16.624
 11
-16.148
 20
97.7
 21
98.848
  0
LINE
  8
0
 10
-16.148
 11
-15
 20
98.848
 21
99.324
  0
LINE
  8
0
 10
-15
 11
-13.852
 20
99.324
 21
98.848
  0
LINE
  8
0
 10
-13.852
 11
-13.376
 20
98.848
 21
97.7
  0
LINE
  8
0
 10
-13.376
 11
-13.852
 20
97.7
 21
96.552
  0
LINE
  8
0
 10
-13.852
 11
-15
 20
96.552
 21
96.076
  0
LINE
  8
0
 10
-15
 11
-16.148
 20
96.076
 21
96.552
  0
LINE
  8
0
 10
-16.148
 11
-16.624
 20
96.552
 21
97.7
  0
LINE
  8
0
 10
-16.624
 11
-16.148
 20
104.7
 21
105.848
  0
LINE
  8
0
 10
-16.148
 11
-15
 20
105.848
 21
106.324
  0
LINE
  8
0
 10
-15
 11
-13.852
 20
106.324
 21
105.848
  0
LINE
  8
0
 10
-13.852
 11
-13.376
 20
105.848
 21
104.7
  0
LINE
  8
0
 10
-13.376
 11
-13.852
 20
104.7
 21
103.552
  0
LINE
  8
0
 10
-13.852
 11
-15
 20
103.552
 21
103.076
  0
LINE
  8
0
 10
-15
 11
-16.148
 20
103.076
 21
103.552
  0
LINE
  8
0
 10
-16.148
 11
-16.624
 20
103.552
 21
104.7
  0
LINE
  8
0
 10
-12
 11
-12
 20
-92
 21
-82
  0
LINE
  8
0
 10
-12
 11
12
 20
-82
 21
-82
  0
LINE
  8
0
 10
12
 11
12
 20
-82
 21
-92
  0
LINE
  8
0
 10
12
 11
-12
 20
-92
 21
-92
  0
LINE
  8
0
 10
-1.732
 11
-1.225
 20
-104.5
 21
-103.275
  0
LINE
  8
0
 10
-1.225
 11
0
 20
-103.275
 21
-102.768
  0
LINE
  8
0
 10
0
 11
1.225
 20
-102.768
 21
-103.275
  0
LINE
  8
0
 10
1.225
 11
1.732
 20
-103.275
 21
-104.5
  0
LINE
  8
0
 10
1.732
 11
1.225
 20
-104.5
 21
-105.725
  0
LINE
  8
0
 10
1.225
 11
0
 20
-105.725
 21
-106.232
  0
LINE
  8
0
 10
0
 11
-1.225
 20
-106.232
 21
-105.725
  0
LINE
  8
0
 10
-1.225
 11
-1.732
 20
-105.725
 21
-104.5
  0
LINE
  8
0
 10
-1.732
 11
-1.225
 20
0
 21
1.225
  0
LINE
  8
0
 10
-1.225
 11
0
 20
1.225
 21
1.732
  0
LINE
  8
0
 10
0
 11
1.225
 20
1.732
 21
1.225
  0
LINE
  8
0
 10
1.225
 11
1.732
 20
1.225
 21
0
  0
LINE
  8
0
 10
1.732
 11
1.225
 20
0
 21
-1.225
  0
LINE
  8
0
 10
1.225
 11
0
 20
-1.225
 21
-1.732
  0
LINE
  8
0
 10
0
 11
-1.225
 20
-1.732
 21
-1.225
  0
LINE
  8
0
 10
-1.225
 11
-1.732
 20
-1.225
 21
0
  0
LINE
  8
0
 10
-1.732
 11
-1.225
 20
104.5
 21
105.725
  0
LINE
  8
0
 10
-1.225
 11
0
 20
105.725
 21
106.232
  0
LINE
  8
0
 10
0
 11
1.225
 20
106.232
 21
105.725
  0
LINE
  8
0
 10
1.225
 11
1.732
 20
105.725
 21
104.5
  0
LINE
  8
0
 10
1.732
 11
1.225
 20
104.5
 21
103.275
  0
LINE
  8
0
 10
1.225
 11
0
 20
103.275
 21
102.768
  0
LINE
  8
0
 10
0
 11
-1.225
 20
102.768
 21
103.275
  0
LINE
  8
0
 10
-1.225
 11
-1.732
 20
103.275
 21
104.5
  0
LINE
  8
0
 10
-1.624
 11
-1.148
 20
-97
 21
-95.852
  0
LINE
  8
0
 10
-1.148
 11
0
 20
-95.852
 21
-95.376
  0
LINE
  8
0
 10
0
 11
1.148
 20
-95.376
 21
-95.852
  0
LINE
  8
0
 10
1.148
 11
1.624
 20
-95.852
 21
-97
  0
LINE
  8
0
 10
1.624
 11
1.148
 20
-97
 21
-98.148
  0
LINE
  8
0
 10
1.148
 11
0
 20
-98.148
 21
-98.624
  0
LINE
  8
0
 10
0
 11
-1.148
 20
-98.624
 21
-98.148
  0
LINE
  8
0
 10
-1.148
 11
-1.624
 20
-98.148
 21
-97
  0
LINE
  8
0
 10
-1.624
 11
-1.148
 20
-77
 21
-75.852
  0
LINE
  8
0
 10
-1.148
 11
0
 20
-75.852
 21
-75.376
  0
LINE
  8
0
 10
0
 11
1.148
 20
-75.376
 21
-75.852
  0
LINE
  8
0
 10
1.148
 11
1.624
 20
-75.852
 21
-77
  0
LINE
  8
0
 10
1.624
 11
1.148
 20
-77
 21
-78.148
  0
LINE
  8
0
 10
1.148
 11
0
 20
-78.148
 21
-78.624
  0
LINE
  8
0
 10
0
 11
-1.148
 20
-78.624
 21
-78.148
  0
LINE
  8
0
 10
-1.148
 11
-1.624
 20
-78.148
 21
-77
  0
LINE
  8
0
 10
-1.624
 11
-1.148
 20
-20.5
 21
-19.352
  0
LINE
  8
0
 10
-1.148
 11
0
 20
-19.352
 21
-18.876
  0
LINE
  8
0
 10
0
 11
1.148
 20
-18.876
 21
-19.352
  0
LINE
  8
0
 10
1.148
 11
1.624
 20
-19.352
 21
-20.5
  0
LINE
  8
0
 10
1.624
 11
1.148
 20
-20.5
 21
-21.648
  0
LINE
  8
0
 10
1.148
 11
0
 20
-21.648
 21
-22.124
  0
LINE
  8
0
 10
0
 11
-1.148
 20
-22.124
 21
-21.648
  0
LINE
  8
0
 10
-1.148
 11
-1.624
 20
-21.648
 21
-20.5
  0
LINE
  8
0
 10
-1.624
 11
-1.148
 20
20.5
 21
21.648
  0
LINE
  8
0
 10
-1.148
 11
0
 20
21.648
 21
22.124
  0
LINE
  8
0
 10
0
 11
1.148
 20
22.124
 21
21.648
  0
LINE
  8
0
 10
1.148
 11
1.624
 20
21.648
 21
20.5
  0
LINE
  8
0
 10
1.624
 11
1.148
 20
20.5
 21
19.352
  0
LINE
  8
0
 10
1.148
 11
0
 20
19.352
 21
18.876
  0
LINE
  8
0
 10
0
 11
-1.148
 20
18.876
 21
19.352
  0
LINE
  8
0
 10
-1.148
 11
-1.624
 20
19.352
 21
20.5
  0
LINE
  8
0
 10
13.376
 11
13.852
 20
-104.7
 21
-103.552
  0
LINE
  8
0
 10
13.852
 11
15
 20
-103.552
 21
-103.076
  0
LINE
  8
0
 10
15
 11
16.148
 20
-103.076
 21
-103.552
  0
LINE
  8
0
 10
16.148
 11
16.624
 20
-103.552
 21
-104.7
  0
LINE
  8
0
 10
16.624
 11
16.148
 20
-104.7
 21
-105.848
  0
LINE
  8
0
 10
16.148
 11
15
 20
-105.848
 21
-106.324
  0
LINE
  8
0
 10
15
 11
13.852
 20
-106.324
 21
-105.848
  0
LINE
  8
0
 10
13.852
 11
13.376
 20
-105.848
 21
-104.7
  0
LINE
  8
0
 10
13.376
 11
13.852
 20
-97.7
 21
-96.552
  0
LINE
  8
0
 10
13.852
 11
15
 20
-96.552
 21
-96.076
  0
LINE
  8
0
 10
15
 11
16.148
 20
-96.076
 21
-96.552
  0
LINE
  8
0
 10
16.148
 11
16.624
 20
-96.552
 21
-97.7
  0
LINE
  8
0
 10
16.624
 11
16.148
 20
-97.7
 21
-98.848
  0
LINE
  8
0
 10
16.148
 11
15
 20
-98.848
 21
-99.324
  0
LINE
  8
0
 10
15
 11
13.852
 20
-99.324
 21
-98.848
  0
LINE
  8
0
 10
13.852
 11
13.376
 20
-98.848
 21
-97.7
  0
LINE
  8
0
 10
13.376
 11
13.852
 20
97.7
 21
98.848
  0
LINE
  8
0
 10
13.852
 11
15
 20
98.848
 21
99.324
  0
LINE
  8
0
 10
15
 11
16.148
 20
99.324
 21
98.848
  0
LINE
  8
0
 10
16.148
 11
16.624
 20
98.848
 21
97.7
  0
LINE
  8
0
 10
16.624
 11
16.148
 20
97.7
 21
96.552
  0
LINE
  8
0
 10
16.148
 11
15
 20
96.552
 21
96.076
  0
LINE
  8
0
 10
15
 11
13.852
 20
96.076
 21
96.552
  0
LINE
  8
0
 10
13.852
 11
13.376
 20
96.552
 21
97.7
  0
LINE
  8
0
 10
13.376
 11
13.852
 20
104.7
 21
105.848
  0
LINE
  8
0
 10
13.852
 11
15
 20
105.848
 21
106.324
  0
LINE
  8
0
 10
15
 11
16.148
 20
106.324
 21
105.848
  0
LINE
  8
0
 10
16.148
 11
16.624
 20
105.848
 21
104.7
  0
LINE
  8
0
 10
16.624
 11
16.148
 20
104.7
 21
103.552
  0
LINE
  8
0
 10
16.148
 11
15
 20
103.552
 21
103.076
  0
LINE
  8
0
 10
15
 11
13.852
 20
103.076
 21
103.552
  0
LINE
  8
0
 10
13.852
 11
13.376
 20
103.552
 21
104.7
  0
LINE
  8
0
 10
18.876
 11
19.352
 20
0
 21
1.148
  0
LINE
  8
0
 10
19.352
 11
20.5
 20
1.148
 21
1.624
  0
LINE
  8
0
 10
20.5
 11
21.648
 20
1.624
 21
1.148
  0
LINE
  8
0
 10
21.648
 11
22.124
 20
1.148
 21
0
  0
LINE
  8
0
 10
22.124
 11
21.648
 20
0
 21
-1.148
  0
LINE
  8
0
 10
21.648
 11
20.5
 20
-1.148
 21
-1.624
  0
LINE
  8
0
 10
20.5
 11
19.352
 20
-1.624
 21
-1.148
  0
LINE
  8
0
 10
19.352
 11
18.876
 20
-1.148
 21
0
  0
LINE
  8
0
 10
23
 11
23
 20
82
 21
92
  0
LINE
  8
0
 10
23
 11
47
 20
92
 21
92
  0
LINE
  8
0
 10
47
 11
47
 20
92
 21
82
  0
LINE
  8
0
 10
47
 11
23
 20
82
 21
82
  0
LINE
  8
0
 10
26.97
 11
26.97
 20
-9.009
 21
9.009
  0
LINE
  8
0
 10
26.97
 11
39.711
 20
9.009
 21
21.75
  0
LINE
  8
0
 10
39.711
 11
57.729
 20
21.75
 21
21.75
  0
LINE
  8
0
 10
57.729
 11
70.47
 20
21.75
 21
9.009
  0
LINE
  8
0
 10
70.47
 11
70.47
 20
9.009
 21
-9.009
  0
LINE
  8
0
 10
70.47
 11
57.729
 20
-9.009
 21
-21.75
  0
LINE
  8
0
 10
57.729
 11
39.711
 20
-21.75
 21
-21.75
  0
LINE
  8
0
 10
39.711
 11
26.97
 20
-21.75
 21
-9.009
  0
LINE
  8
0
 10
33.376
 11
33.852
 20
77
 21
78.148
  0
LINE
  8
0
 10
33.852
 11
35
 20
78.148
 21
78.624
  0
LINE
  8
0
 10
35
 11
36.148
 20
78.624
 21
78.148
  0
LINE
  8
0
 10
36.148
 11
36.624
 20
78.148
 21
77
  0
LINE
  8
0
 10
36.624
 11
36.148
 20
77
 21
75.852
  0
LINE
  8
0
 10
36.148
 11
35
 20
75.852
 21
75.376
  0
LINE
  8
0
 10
35
 11
33.852
 20
75.376
 21
75.852
  0
LINE
  8
0
 10
33.852
 11
33.376
 20
75.852
 21
77
  0
LINE
  8
0
 10
33.376
 11
33.852
 20
97
 21
98.148
  0
LINE
  8
0
 10
33.852
 11
35
 20
98.148
 21
98.624
  0
LINE
  8
0
 10
35
 11
36.148
 20
98.624
 21
98.148
  0
LINE
  8
0
 10
36.148
 11
36.624
 20
98.148
 21
97
  0
LINE
  8
0
 10
36.624
 11
36.148
 20
97
 21
95.852
  0
LINE
  8
0
 10
36.148
 11
35
 20
95.852
 21
95.376
  0
LINE
  8
0
 10
35
 11
33.852
 20
95.376
 21
95.852
  0
LINE
  8
0
 10
33.852
 11
33.376
 20
95.852
 21
97
  0
LINE
  8
0
 10
35.67
 11
35.67
 20
-54.125
 21
-43.315
  0
LINE
  8
0
 10
35.67
 11
43.315
 20
-43.315
 21
-35.67
  0
LINE
  8
0
 10
43.315
 11
54.125
 20
-35.67
 21
-35.67
  0
LINE
  8
0
 10
54.125
 11
61.77
 20
-35.67
 21
-43.315
  0
LINE
  8
0
 10
61.77
 11
61.77
 20
-43.315
 21
-54.125
  0
LINE
  8
0
 10
61.77
 11
54.125
 20
-54.125
 21
-61.77
  0
LINE
  8
0
 10
54.125
 11
43.315
 20
-61.77
 21
-61.77
  0
LINE
  8
0
 10
43.315
 11
35.67
 20
-61.77
 21
-54.125
  0
LINE
  8
0
 10
35.67
 11
35.67
 20
43.315
 21
54.125
  0
LINE
  8
0
 10
35.67
 11
43.315
 20
54.125
 21
61.77
  0
LINE
  8
0
 10
43.315
 11
54.125
 20
61.77
 21
61.77
  0
LINE
  8
0
 10
54.125
 11
61.77
 20
61.77
 21
54.125
  0
LINE
  8
0
 10
61.77
 11
61.77
 20
54.125
 21
43.315
  0
LINE
  8
0
 10
61.77
 11
54.125
 20
43.315
 21
35.67
  0
LINE
  8
0
 10
54.125
 11
43.315
 20
35.67
 21
35.67
  0
LINE
  8
0
 10
43.315
 11
35.67
 20
35.67
 21
43.315
  0
LINE
  8
0
 10
69.6
 11
69.6
 20
-81.904
 21
-74.696
  0
LINE
  8
0
 10
69.6
 11
74.696
 20
-74.696
 21
-69.6
  0
LINE
  8
0
 10
74.696
 11
81.904
 20
-69.6
 21
-69.6
  0
LINE
  8
0
 10
81.904
 11
87
 20
-69.6
 21
-74.696
  0
LINE
  8
0
 10
87
 11
87
 20
-74.696
 21
-81.904
  0
LINE
  8
0
 10
87
 11
81.904
 20
-81.904
 21
-87
  0
LINE
  8
0
 10
81.904
 11
74.696
 20
-87
 21
-87
  0
LINE
  8
0
 10
74.696
 11
69.6
 20
-87
 21
-81.904
  0
LINE
  8
0
 10
69.6
 11
69.6
 20
74.696
 21
81.904
  0
LINE
  8
0
 10
69.6
 11
74.696
 20
81.904
 21
87
  0
LINE
  8
0
 10
74.696
 11
81.904
 20
87
 21
87
  0
LINE
  8
0
 10
81.904
 11
87
 20
87
 21
81.904
  0
LINE
  8
0
 10
87
 11
87
 20
81.904
 21
74.696
  0
LINE
  8
0
 10
87
 11
81.904
 20
74.696
 21
69.6
  0
LINE
  8
0
 10
81.904
 11
74.696
 20
69.6
 21
69.6
  0
LINE
  8
0
 10
74.696
 11
69.6
 20
69.6
 21
74.696
  0
LINE
  8
0
 10
75.376
 11
75.852
 20
-35
 21
-33.852
  0
LINE
  8
0
 10
75.852
 11
77
 20
-33.852
 21
-33.376
  0
LINE
  8
0
 10
77
 11
78.148
 20
-33.376
 21
-33.852
  0
LINE
  8
0
 10
78.148
 11
78.624
 20
-33.852
 21
-35
  0
LINE
  8
0
 10
78.624
 11
78.148
 20
-35
 21
-36.148
  0
LINE
  8
0
 10
78.148
 11
77
 20
-36.148
 21
-36.624
  0
LINE
  8
0
 10
77
 11
75.852
 20
-36.624
 21
-36.148
  0
LINE
  8
0
 10
75.852
 11
75.376
 20
-36.148
 21
-35
  0
LINE
  8
0
 10
75.376
 11
75.852
 20
35
 21
36.148
  0
LINE
  8
0
 10
75.852
 11
77
 20
36.148
 21
36.624
  0
LINE
  8
0
 10
77
 11
78.148
 20
36.624
 21
36.148
  0
LINE
  8
0
 10
78.148
 11
78.624
 20
36.148
 21
35
  0
LINE
  8
0
 10
78.624
 11
78.148
 20
35
 21
33.852
  0
LINE
  8
0
 10
78.148
 11
77
 20
33.852
 21
33.376
  0
LINE
  8
0
 10
77
 11
75.852
 20
33.376
 21
33.852
  0
LINE
  8
0
 10
75.852
 11
75.376
 20
33.852
 21
35
  0
LINE
  8
0
 10
82
 11
82
 20
-47
 21
-23
  0
LINE
  8
0
 10
82
 11
92
 20
-23
 21
-23
  0
LINE
  8
0
 10
92
 11
92
 20
-23
 21
-47
  0
LINE
  8
0
 10
92
 11
82
 20
-47
 21
-47
  0
LINE
  8
0
 10
82
 11
82
 20
23
 21
47
  0
LINE
  8
0
 10
82
 11
92
 20
47
 21
47
  0
LINE
  8
0
 10
92
 11
92
 20
47
 21
23
  0
LINE
  8
0
 10
92
 11
82
 20
23
 21
23
  0
LINE
  8
0
 10
87.876
 11
88.352
 20
-104.7
 21
-103.552
  0
LINE
  8
0
 10
88.352
 11
89.5
 20
-103.552
 21
-103.076
  0
LINE
  8
0
 10
89.5
 11
90.648
 20
-103.076
 21
-103.552
  0
LINE
  8
0
 10
90.648
 11
91.124
 20
-103.552
 21
-104.7
  0
LINE
  8
0
 10
91.124
 11
90.648
 20
-104.7
 21
-105.848
  0
LINE
  8
0
 10
90.648
 11
89.5
 20
-105.848
 21
-106.324
  0
LINE
  8
0
 10
89.5
 11
88.352
 20
-106.324
 21
-105.848
  0
LINE
  8
0
 10
88.352
 11
87.876
 20
-105.848
 21
-104.7
  0
LINE
  8
0
 10
87.876
 11
88.352
 20
-97.7
 21
-96.552
  0
LINE
  8
0
 10
88.352
 11
89.5
 20
-96.552
 21
-96.076
  0
LINE
  8
0
 10
89.5
 11
90.648
 20
-96.076
 21
-96.552
  0
LINE
  8
0
 10
90.648
 11
91.124
 20
-96.552
 21
-97.7
  0
LINE
  8
0
 10
91.124
 11
90.648
 20
-97.7
 21
-98.848
  0
LINE
  8
0
 10
90.648
 11
89.5
 20
-98.848
 21
-99.324
  0
LINE
  8
0
 10
89.5
 11
88.352
 20
-99.324
 21
-98.848
  0
LINE
  8
0
 10
88.352
 11
87.876
 20
-98.848
 21
-97.7
  0
LINE
  8
0
 10
87.876
 11
88.352
 20
97.7
 21
98.848
  0
LINE
  8
0
 10
88.352
 11
89.5
 20
98.848
 21
99.324
  0
LINE
  8
0
 10
89.5
 11
90.648
 20
99.324
 21
98.848
  0
LINE
  8
0
 10
90.648
 11
91.124
 20
98.848
 21
97.7
  0
LINE
  8
0
 10
91.124
 11
90.648
 20
97.7
 21
96.552
  0
LINE
  8
0
 10
90.648
 11
89.5
 20
96.552
 21
96.076
  0
LINE
  8
0
 10
89.5
 11
88.352
 20
96.076
 21
96.552
  0
LINE
  8
0
 10
88.352
 11
87.876
 20
96.552
 21
97.7
  0
LINE
  8
0
 10
87.876
 11
88.352
 20
104.7
 21
105.848
  0
LINE
  8
0
 10
88.352
 11
89.5
 20
105.848
 21
106.324
  0
LINE
  8
0
 10
89.5
 11
90.648
 20
106.324
 21
105.848
  0
LINE
  8
0
 10
90.648
 11
91.124
 20
105.848
 21
104.7
  0
LINE
  8
0
 10
91.124
 11
90.648
 20
104.7
 21
103.552
  0
LINE
  8
0
 10
90.648
 11
89.5
 20
103.552
 21
103.076
  0
LINE
  8
0
 10
89.5
 11
88.352
 20
103.076
 21
103.552
  0
LINE
  8
0
 10
88.352
 11
87.876
 20
103.552
 21
104.7
  0
LINE
  8
0
 10
95.376
 11
95.852
 20
-35
 21
-33.852
  0
LINE
  8
0
 10
95.852
 11
97
 20
-33.852
 21
-33.376
  0
LINE
  8
0
 10
97
 11
98.148
 20
-33.376
 21
-33.852
  0
LINE
  8
0
 10
98.148
 11
98.624
 20
-33.852
 21
-35
  0
LINE
  8
0
 10
98.624
 11
98.148
 20
-35
 21
-36.148
  0
LINE
  8
0
 10
98.148
 11
97
 20
-36.148
 21
-36.624
  0
LINE
  8
0
 10
97
 11
95.852
 20
-36.624
 21
-36.148
  0
LINE
  8
0
 10
95.852
 11
95.376
 20
-36.148
 21
-35
  0
LINE
  8
0
 10
95.376
 11
95.852
 20
35
 21
36.148
  0
LINE
  8
0
 10
95.852
 11
97
 20
36.148
 21
36.624
  0
LINE
  8
0
 10
97
 11
98.148
 20
36.624
 21
36.148
  0
LINE
  8
0
 10
98.148
 11
98.624
 20
36.148
 21
35
  0
LINE
  8
0
 10
98.624
 11
98.148
 20
35
 21
33.852
  0
LINE
  8
0
 10
98.148
 11
97
 20
33.852
 21
33.376
  0
LINE
  8
0
 10
97
 11
95.852
 20
33.376
 21
33.852
  0
LINE
  8
0
 10
95.852
 11
95.376
 20
33.852
 21
35
  0
LINE
  8
0
 10
96.076
 11
96.552
 20
-89.5
 21
-88.352
  0
LINE
  8
0
 10
96.552
 11
97.7
 20
-88.352
 21
-87.876
  0
LINE
  8
0
 10
97.7
 11
98.848
 20
-87.876
 21
-88.352
  0
LINE
  8
0
 10
98.848
 11
99.324
 20
-88.352
 21
-89.5
  0
LINE
  8
0
 10
99.324
 11
98.848
 20
-89.5
 21
-90.648
  0
LINE
  8
0
 10
98.848
 11
97.7
 20
-90.648
 21
-91.124
  0
LINE
  8
0
 10
97.7
 11
96.552
 20
-91.124
 21
-90.648
  0
LINE
  8
0
 10
96.552
 11
96.076
 20
-90.648
 21
-89.5
  0
LINE
  8
0
 10
96.076
 11
96.552
 20
-15
 21
-13.852
  0
LINE
  8
0
 10
96.552
 11
97.7
 20
-13.852
 21
-13.376
  0
LINE
  8
0
 10
97.7
 11
98.848
 20
-13.376
 21
-13.852
  0
LINE
  8
0
 10
98.848
 11
99.324
 20
-13.852
 21
-15
  0
LINE
  8
0
 10
99.324
 11
98.848
 20
-15
 21
-16.148
  0
LINE
  8
0
 10
98.848
 11
97.7
 20
-16.148
 21
-16.624
  0
LINE
  8
0
 10
97.7
 11
96.552
 20
-16.624
 21
-16.148
  0
LINE
  8
0
 10
96.552
 11
96.076
 20
-16.148
 21
-15
  0
LINE
  8
0
 10
96.076
 11
96.552
 20
15
 21
16.148
  0
LINE
  8
0
 10
96.552
 11
97.7
 20
16.148
 21
16.624
  0
LINE
  8
0
 10
97.7
 11
98.848
 20
16.624
 21
16.148
  0
LINE
  8
0
 10
98.848
 11
99.324
 20
16.148
 21
15
  0
LINE
  8
0
 10
99.324
 11
98.848
 20
15
 21
13.852
  0
LINE
  8
0
 10
98.848
 11
97.7
 20
13.852
 21
13.376
  0
LINE
  8
0
 10
97.7
 11
96.552
 20
13.376
 21
13.852
  0
LINE
  8
0
 10
96.552
 11
96.076
 20
13.852
 21
15
  0
LINE
  8
0
 10
96.076
 11
96.552
 20
89.5
 21
90.648
  0
LINE
  8
0
 10
96.552
 11
97.7
 20
90.648
 21
91.124
  0
LINE
  8
0
 10
97.7
 11
98.848
 20
91.124
 21
90.648
  0
LINE
  8
0
 10
98.848
 11
99.324
 20
90.648
 21
89.5
  0
LINE
  8
0
 10
99.324
 11
98.848
 20
89.5
 21
88.352
  0
LINE
  8
0
 10
98.848
 11
97.7
 20
88.352
 21
87.876
  0
LINE
  8
0
 10
97.7
 11
96.552
 20
87.876
 21
88.352
  0
LINE
  8
0
 10
96.552
 11
96.076
 20
88.352
 21
89.5
  0
LINE
  8
0
 10
102.768
 11
103.275
 20
-104.5
 21
-103.275
  0
LINE
  8
0
 10
103.275
 11
104.5
 20
-103.275
 21
-102.768
  0
LINE
  8
0
 10
104.5
 11
105.725
 20
-102.768
 21
-103.275
  0
LINE
  8
0
 10
105.725
 11
106.232
 20
-103.275
 21
-104.5
  0
LINE
  8
0
 10
106.232
 11
105.725
 20
-104.5
 21
-105.725
  0
LINE
  8
0
 10
105.725
 11
104.5
 20
-105.725
 21
-106.232
  0
LINE
  8
0
 10
104.5
 11
103.275
 20
-106.232
 21
-105.725
  0
LINE
  8
0
 10
103.275
 11
102.768
 20
-105.725
 21
-104.5
  0
LINE
  8
0
 10
102.768
 11
103.275
 20
0
 21
1.225
  0
LINE
  8
0
 10
103.275
 11
104.5
 20
1.225
 21
1.732
  0
LINE
  8
0
 10
104.5
 11
105.725
 20
1.732
 21
1.225
  0
LINE
  8
0
 10
105.725
 11
106.232
 20
1.225
 21
0
  0
LINE
  8
0
 10
106.232
 11
105.725
 20
0
 21
-1.225
  0
LINE
  8
0
 10
105.725
 11
104.5
 20
-1.225
 21
-1.732
  0
LINE
  8
0
 10
104.5
 11
103.275
 20
-1.732
 21
-1.225
  0
LINE
  8
0
 10
103.275
 11
102.768
 20
-1.225
 21
0
  0
LINE
  8
0
 10
102.768
 11
103.275
 20
104.5
 21
105.725
  0
LINE
  8
0
 10
103.275
 11
104.5
 20
105.725
 21
106.232
  0
LINE
  8
0
 10
104.5
 11
105.725
 20
106.232
 21
105.725
  0
LINE
  8
0
 10
105.725
 11
106.232
 20
105.725
 21
104.5
  0
LINE
  8
0
 10
106.232
 11
105.725
 20
104.5
 21
103.275
  0
LINE
  8
0
 10
105.725
 11
104.5
 20
103.275
 21
102.768
  0
LINE
  8
0
 10
104.5
 11
103.275
 20
102.768
 21
103.275
  0
LINE
  8
0
 10
103.275
 11
102.768
 20
103.275
 21
104.5
  0
LINE
  8
0
 10
103.076
 11
103.552
 20
-89.5
 21
-88.352
  0
LINE
  8
0
 10
103.552
 11
104.7
 20
-88.352
 21
-87.876
  0
LINE
  8
0
 10
104.7
 11
105.848
 20
-87.876
 21
-88.352
  0
LINE
  8
0
 10
105.848
 11
106.324
 20
-88.352
 21
-89.5
  0
LINE
  8
0
 10
106.324
 11
105.848
 20
-89.5
 21
-90.648
  0
LINE
  8
0
 10
105.848
 11
104.7
 20
-90.648
 21
-91.124
  0
LINE
  8
0
 10
104.7
 11
103.552
 20
-91.124
 21
-90.648
  0
LINE
  8
0
 10
103.552
 11
103.076
 20
-90.648
 21
-89.5
  0
LINE
  8
0
 10
103.076
 11
103.552
 20
-15
 21
-13.852
  0
LINE
  8
0
 10
103.552
 11
104.7
 20
-13.852
 21
-13.376
  0
LINE
  8
0
 10
104.7
 11
105.848
 20
-13.376
 21
-13.852
  0
LINE
  8
0
 10
105.848
 11
106.324
 20
-13.852
 21
-15
  0
LINE
  8
0
 10
106.324
 11
105.848
 20
-15
 21
-16.148
  0
LINE
  8
0
 10
105.848
 11
104.7
 20
-16.148
 21
-16.624
  0
LINE
  8
0
 10
104.7
 11
103.552
 20
-16.624
 21
-16.148
  0
LINE
  8
0
 10
103.552
 11
103.076
 20
-16.148
 21
-15
  0
LINE
  8
0
 10
103.076
 11
103.552
 20
15
 21
16.148
  0
LINE
  8
0
 10
103.552
 11
104.7
 20
16.148
 21
16.624
  0
LINE
  8
0
 10
104.7
 11
105.848
 20
16.624
 21
16.148
  0
LINE
  8
0
 10
105.848
 11
106.324
 20
16.148
 21
15
  0
LINE
  8
0
 10
106.324
 11
105.848
 20
15
 21
13.852
  0
LINE
  8
0
 10
105.848
 11
104.7
 20
13.852
 21
13.376
  0
LINE
  8
0
 10
104.7
 11
103.552
 20
13.376
 21
13.852
  0
LINE
  8
0
 10
103.552
 11
103.076
 20
13.852
 21
15
  0
LINE
  8
0
 10
103.076
 11
103.552
 20
89.5
 21
90.648
  0
LINE
  8
0
 10
103.552
 11
104.7
 20
90.648
 21
91.124
  0
LINE
  8
0
 10
104.7
 11
105.848
 20
91.124
 21
90.648
  0
LINE
  8
0
 10
105.848
 11
106.324
 20
90.648
 21
89.5
  0
LINE
  8
0
 10
106.324
 11
105.848
 20
89.5
 21
88.352
  0
LINE
  8
0
 10
105.848
 11
104.7
 20
88.352
 21
87.876
  0
LINE
  8
0
 10
104.7
 11
103.552
 20
87.876
 21
88.352
  0
LINE
  8
0
 10
103.552
 11
103.076
 20
88.352
 21
89.5
  0
ENDSEC
  0
SECTION
  2
OBJECTS
  0
DICTIONARY
  0
ENDSEC
  0
EOF
